<svg width="98" height="30" viewBox="0 0 98 30" fill="none" xmlns="http://www.w3.org/2000/svg">
<g clip-path="url(#clip0_1_4507)">
<path d="M28.2895 21.2611C28.1374 20.8955 27.9948 20.5111 27.8428 20.183L27.1395 18.6174L27.111 18.5892C25.0201 14.0892 22.7866 9.51423 20.4201 5.01423L20.3251 4.82673C20.0875 4.38611 19.8499 3.89861 19.6028 3.44861C19.2987 2.91423 19.004 2.34236 18.5193 1.79861C18.0469 1.22967 17.4522 0.771282 16.7784 0.456532C16.1045 0.141782 15.3682 -0.0214844 14.6227 -0.0214844C13.8771 -0.0214844 13.1408 0.141782 12.4669 0.456532C11.7931 0.771282 11.1985 1.22967 10.726 1.79861C10.2793 2.34236 9.94668 2.91423 9.64255 3.44861C9.40495 3.93611 9.16735 4.41423 8.92024 4.85486L8.8252 5.04236C6.49671 9.54236 4.22525 14.1174 2.13436 18.6174L2.07733 18.6736C1.86825 19.1611 1.62114 19.6674 1.38354 20.2111C1.23148 20.5392 1.07941 20.8955 0.927346 21.2892C0.516802 22.3203 0.385703 23.4391 0.546968 24.5353C0.708233 25.6316 1.1563 26.6674 1.847 27.5409C2.5377 28.4143 3.4472 29.0951 4.48587 29.5162C5.52454 29.9373 6.65652 30.0842 7.77025 29.9424C8.838 29.8037 9.86615 29.4529 10.7925 28.9111C12.0281 28.2267 13.2161 27.233 14.5466 25.7986C15.8772 27.233 17.0937 28.2267 18.3007 28.9205C19.4615 29.5925 20.7759 29.9634 22.1214 29.9986C23.6794 30.005 25.1872 29.4551 26.3663 28.4505C27.5454 27.4459 28.3163 26.0544 28.5366 24.533C28.7911 23.4396 28.705 22.296 28.2895 21.2517V21.2611ZM14.6417 22.8174C13.007 20.7549 11.9425 18.8611 11.5814 17.2392C11.4317 16.6382 11.3995 16.0146 11.4863 15.4017C11.5529 14.9236 11.7334 14.5017 11.9805 14.1455C12.5508 13.3299 13.5487 12.8236 14.6417 12.8236C15.1607 12.808 15.6756 12.9197 16.1401 13.1488C16.6045 13.3779 17.0041 13.7171 17.3028 14.1361C17.5499 14.5111 17.7305 14.9236 17.7875 15.4017C17.8825 15.9455 17.8445 16.5736 17.6925 17.2392C17.3313 18.833 16.2669 20.7455 14.6417 22.8174ZM26.7498 24.2049C26.6418 24.9773 26.3305 25.7084 25.847 26.3252C25.3634 26.942 24.7244 27.4231 23.9936 27.7205C23.2713 28.0205 22.473 28.1049 21.6937 28.0205C20.9333 27.9267 20.173 27.683 19.3937 27.233C18.0997 26.4441 16.9362 25.4639 15.9437 24.3267C17.9396 21.8892 19.1466 19.6674 19.6028 17.6892C19.8214 16.7517 19.8499 15.908 19.7548 15.1299C19.6362 14.3923 19.3574 13.6888 18.9375 13.0674C18.4581 12.3935 17.8182 11.8462 17.0742 11.4735C16.3301 11.1008 15.5046 10.9141 14.6702 10.9299C12.9119 10.9299 11.3438 11.7361 10.3934 13.058C9.96553 13.6778 9.68903 14.387 9.58552 15.1299C9.46197 15.9174 9.49048 16.7892 9.73759 17.6892C10.1938 19.6674 11.4293 21.9174 13.3966 24.3455C12.421 25.5044 11.2548 26.4932 9.94668 27.2705C9.15784 27.7205 8.40702 27.9549 7.6467 28.0486C6.46429 28.198 5.26988 27.881 4.3231 27.1665C3.37632 26.452 2.75369 25.3978 2.59055 24.233C2.49551 23.483 2.56204 22.733 2.86617 21.8892C2.96121 21.5892 3.10377 21.2892 3.25584 20.933C3.46492 20.4455 3.71203 19.9392 3.94963 19.433L3.98765 19.3674C6.04052 14.8955 8.28347 10.3299 10.612 5.85798L10.707 5.67048C10.9446 5.22048 11.1822 4.74236 11.4293 4.29236C11.6764 3.81423 11.9425 3.35486 12.2847 2.97986C12.5808 2.63112 12.9509 2.35067 13.3688 2.15825C13.7867 1.96582 14.2423 1.86609 14.7034 1.86609C15.1646 1.86609 15.6202 1.96582 16.0381 2.15825C16.456 2.35067 16.8261 2.63112 17.1222 2.97986C17.4549 3.35486 17.7305 3.81423 17.9776 4.29236C18.2152 4.74236 18.4528 5.22986 18.6999 5.67048L18.7949 5.85798C21.1139 10.3299 23.3569 14.8955 25.4478 19.3674L25.4763 19.3955C25.7234 19.883 25.9325 20.4267 26.1701 20.8955C26.3221 21.2611 26.4742 21.5517 26.5692 21.8611C26.7498 22.7049 26.8449 23.4549 26.7498 24.2049ZM39.9794 22.6111C39.2633 22.6214 38.5539 22.4726 37.904 22.1756C37.2542 21.8786 36.6804 21.4411 36.2253 20.8955C35.2028 19.7329 34.6601 18.234 34.7047 16.6955C34.689 15.1235 35.2493 13.5988 36.2824 12.4017C36.7602 11.8492 37.3551 11.4067 38.025 11.1054C38.695 10.8041 39.4238 10.6514 40.16 10.658C40.8528 10.6393 41.539 10.7947 42.1542 11.1095C42.7693 11.4244 43.2932 11.8884 43.6765 12.458L43.7715 10.9861H46.5467V22.3111H43.762L43.667 20.6611C43.2718 21.2692 42.7256 21.7676 42.0802 22.1089C41.4348 22.4502 40.7116 22.6231 39.9794 22.6111ZM40.7017 19.9111C41.253 19.9111 41.7377 19.7611 42.1939 19.4892C42.6121 19.1892 42.9542 18.7955 43.2203 18.3174C43.4579 17.8392 43.5815 17.2674 43.5815 16.6299C43.6185 16.0762 43.5093 15.5225 43.2644 15.0229C43.0195 14.5234 42.6474 14.095 42.1844 13.7799C41.7395 13.5064 41.2259 13.3615 40.7017 13.3615C40.1776 13.3615 39.664 13.5064 39.2191 13.7799C38.8009 14.0799 38.4588 14.4736 38.1927 14.9517C37.9413 15.479 37.8177 16.0567 37.8315 16.6392C37.7945 17.1929 37.9037 17.7466 38.1486 18.2462C38.3935 18.7457 38.7656 19.174 39.2286 19.4892C39.6753 19.7611 40.16 19.9111 40.7017 19.9111ZM51.2987 7.92986C51.2987 8.25798 51.2417 8.55798 51.0897 8.80173C50.9376 9.03611 50.7285 9.25173 50.4529 9.40173C50.1773 9.55173 49.8826 9.60798 49.5785 9.60798C49.2744 9.60798 48.9703 9.55173 48.6946 9.40173C48.434 9.25858 48.2148 9.05204 48.0579 8.80173C47.9107 8.53467 47.8385 8.23366 47.8488 7.92986C47.8488 7.59236 47.9153 7.29236 48.0579 7.05798C48.2099 6.77673 48.4285 6.60798 48.6946 6.45798C48.9703 6.30798 49.2649 6.24236 49.5785 6.24236C49.881 6.23548 50.1802 6.30616 50.4467 6.44748C50.7133 6.5888 50.9381 6.79592 51.0992 7.04861C51.2375 7.32193 51.306 7.62445 51.2987 7.92986ZM48.0674 22.2736V10.9674H51.0897V22.2924H48.0579L48.0674 22.2736ZM59.1681 13.9299V13.9674C59.0255 13.9017 58.8354 13.8736 58.6929 13.8455C58.5028 13.808 58.3507 13.808 58.1702 13.808C57.3243 13.808 56.6875 14.0517 56.2694 14.558C55.8132 15.0736 55.6041 15.7955 55.6041 16.7236V22.283H52.5723V10.958H55.357L55.452 12.6736C55.7561 12.0736 56.1173 11.6236 56.6305 11.2861C57.141 10.9582 57.742 10.7944 58.3507 10.8174C58.5693 10.8174 58.7784 10.8361 58.959 10.8736C59.054 10.9017 59.1111 10.9017 59.1681 10.9299V13.9299ZM60.3846 22.2736V6.31736H63.4069V12.4111C63.8346 11.8674 64.3193 11.4455 64.9275 11.1174C65.8905 10.6516 66.9844 10.5195 68.0328 10.7423C69.0812 10.9652 70.0229 11.5299 70.706 12.3455C71.7308 13.5104 72.2737 15.0131 72.2266 16.5549C72.2423 18.1268 71.6821 19.6516 70.649 20.8486C70.1711 21.4011 69.5762 21.8436 68.9063 22.1449C68.2363 22.4462 67.5076 22.5989 66.7713 22.5924C66.0785 22.6111 65.3923 22.4557 64.7772 22.1408C64.162 21.8259 63.6382 21.3619 63.2548 20.7924L63.1598 22.2642L60.3846 22.2924V22.2736ZM66.2296 19.9111C66.7713 19.9111 67.256 19.7611 67.7122 19.4892C68.1304 19.1892 68.4725 18.7955 68.7387 18.3174C68.9858 17.8392 69.0998 17.2674 69.0998 16.6299C69.0998 16.0017 68.9858 15.4299 68.7387 14.9517C68.4891 14.4907 68.1384 14.0904 67.7122 13.7799C67.2674 13.5064 66.7537 13.3615 66.2296 13.3615C65.7055 13.3615 65.1918 13.5064 64.747 13.7799C64.3193 14.0799 63.9866 14.4736 63.711 14.9517C63.4597 15.479 63.336 16.0567 63.3499 16.6392C63.3128 17.1929 63.4221 17.7466 63.667 18.2462C63.9119 18.7457 64.284 19.174 64.747 19.4892C65.1936 19.7611 65.6784 19.9111 66.2296 19.9111ZM73.3671 22.283V10.958H76.1518L76.2468 12.4299C76.5968 11.8657 77.0932 11.4039 77.6847 11.0924C78.2762 10.7809 78.9413 10.6309 79.6113 10.658C80.3774 10.6449 81.1304 10.855 81.7761 11.2618C82.4219 11.6687 82.9317 12.2543 83.2418 12.9455C83.5745 13.658 83.755 14.5392 83.755 15.5236V22.3111H80.7233V15.9174C80.7233 15.1299 80.5427 14.5111 80.1815 14.0517C79.8204 13.6017 79.3262 13.358 78.6989 13.358C78.2427 13.358 77.8435 13.4517 77.4919 13.658C77.1592 13.8736 76.8836 14.1455 76.6745 14.5299C76.4631 14.9184 76.3583 15.3547 76.3704 15.7955V22.283H73.3671ZM85.2662 22.283V6.30798H88.298V12.4017C88.7086 11.8549 89.2428 11.4101 89.8582 11.1025C90.4736 10.795 91.1531 10.6331 91.843 10.6299C92.5591 10.6195 93.2685 10.7684 93.9184 11.0654C94.5682 11.3624 95.142 11.7999 95.5971 12.3455C96.6146 13.5103 97.1536 15.0085 97.1082 16.5455C97.1247 18.1176 96.5644 19.6426 95.5305 20.8392C95.0527 21.3918 94.4578 21.8343 93.7879 22.1355C93.1179 22.4368 92.3892 22.5895 91.6529 22.583C90.9601 22.6017 90.2739 22.4463 89.6587 22.1314C89.0436 21.8165 88.5197 21.3525 88.1364 20.783L88.0509 22.2549L85.2662 22.283ZM91.1397 19.9111C91.6909 19.9111 92.1756 19.7611 92.6223 19.4892C93.05 19.1892 93.3826 18.7955 93.6582 18.3174C93.8958 17.8392 94.0194 17.2674 94.0194 16.6299C94.0564 16.0762 93.9472 15.5225 93.7023 15.0229C93.4574 14.5234 93.0853 14.095 92.6223 13.7799C92.1775 13.5064 91.6638 13.3615 91.1397 13.3615C90.6155 13.3615 90.1019 13.5064 89.657 13.7799C89.2389 14.0799 88.8967 14.4736 88.6306 14.9517C88.3653 15.4743 88.2409 16.0555 88.2695 16.6392C88.2324 17.1929 88.3417 17.7466 88.5866 18.2462C88.8314 18.7457 89.2036 19.174 89.6665 19.4892C90.1132 19.7611 90.5694 19.9111 91.1397 19.9111Z" fill="#FF385C"/>
</g>
<defs>
<clipPath id="clip0_1_4507">
<rect width="96.9412" height="30" fill="white" transform="translate(0.5)"/>
</clipPath>
</defs>
</svg>
