<svg width="98" height="30" viewBox="0 0 98 30" fill="none" xmlns="http://www.w3.org/2000/svg">
<g clip-path="url(#clip0_1_4511)">
<path fill-rule="evenodd" clip-rule="evenodd" d="M60.6402 23.4612C55.0068 27.7253 46.8415 30.0003 39.8114 30.0003C29.9539 30.0003 21.0797 26.2563 14.3661 20.0292C13.8386 19.5395 14.3112 18.8722 14.9442 19.2535C22.1895 23.5826 31.1481 26.1869 40.4021 26.1869C46.6432 26.1869 53.5088 24.8609 59.8216 22.1092C60.7753 21.6932 61.5728 22.7505 60.6402 23.4612Z" fill="#FF9900"/>
<path fill-rule="evenodd" clip-rule="evenodd" d="M62.9824 20.709C62.2651 19.7644 58.2225 20.2627 56.408 20.4837C55.8552 20.553 55.7708 20.059 56.2688 19.7037C59.4885 17.3767 64.7716 18.0483 65.3877 18.8283C66.0038 19.6127 65.2274 25.0511 62.2018 27.6468C61.7376 28.0454 61.2945 27.8331 61.5013 27.3044C62.1807 25.5624 63.704 21.658 62.9824 20.709Z" fill="#FF9900"/>
<path fill-rule="evenodd" clip-rule="evenodd" d="M56.5349 3.27641V1.01439C56.5349 0.672052 56.7881 0.442383 57.0919 0.442383H66.9535C67.27 0.442383 67.5232 0.676386 67.5232 1.01439V2.95141C67.519 3.27641 67.2531 3.70108 66.7805 4.37276L61.6703 11.8652C63.5693 11.8175 65.5737 12.1078 67.2953 13.1045C67.6835 13.3299 67.789 13.6592 67.8186 13.9842V16.3979C67.8186 16.7272 67.4641 17.1129 67.0928 16.9136C64.0587 15.2799 60.0288 15.1022 56.6741 16.9309C56.3323 17.1216 55.9736 16.7402 55.9736 16.4109V14.1185C55.9736 13.7502 55.9778 13.1218 56.3365 12.5628L62.2569 3.84408H57.1045C56.788 3.84408 56.5349 3.61442 56.5349 3.27641Z" fill="#1D1E25"/>
<path fill-rule="evenodd" clip-rule="evenodd" d="M20.5611 17.3895H17.5608C17.2739 17.3679 17.046 17.1469 17.0249 16.8652V1.05271C17.0249 0.736376 17.2823 0.485038 17.603 0.485038H20.4007C20.6919 0.498029 20.924 0.727706 20.9451 1.01371V3.08073H20.9999C21.73 1.08304 23.1014 0.151367 24.9497 0.151367C26.8275 0.151367 28.0006 1.08304 28.8445 3.08073C29.5703 1.08304 31.2203 0.151367 32.9884 0.151367C34.2459 0.151367 35.6215 0.684372 36.4612 1.88038C37.4107 3.21073 37.2166 5.14342 37.2166 6.83777L37.2124 16.8175C37.2124 17.1339 36.955 17.3895 36.6343 17.3895H33.6382C33.3386 17.3679 33.0981 17.1209 33.0981 16.8175V8.43678C33.0981 7.76944 33.1571 6.10543 33.0137 5.47275C32.79 4.41108 32.1191 4.11207 31.2498 4.11207C30.524 4.11207 29.7644 4.61041 29.4564 5.40775C29.1484 6.2051 29.1779 7.53977 29.1779 8.43678V16.8175C29.1779 17.1339 28.9205 17.3895 28.5998 17.3895H25.6037C25.2999 17.3679 25.0636 17.1209 25.0636 16.8175L25.0594 8.43678C25.0594 6.6731 25.3421 4.07741 23.2111 4.07741C21.0548 4.07741 21.1392 6.6081 21.1392 8.43678V16.8175C21.1392 17.1339 20.8818 17.3895 20.5611 17.3895" fill="#1D1E25"/>
<path fill-rule="evenodd" clip-rule="evenodd" d="M76.0129 0.151367C80.4648 0.151367 82.8743 4.07741 82.8743 9.06946C82.8743 13.8925 80.2116 17.7189 76.0129 17.7189C71.6412 17.7189 69.2612 13.7928 69.2612 8.90046C69.2612 3.97774 71.6707 0.151367 76.0129 0.151367ZM76.0382 3.37974C73.827 3.37974 73.6878 6.47376 73.6878 8.40212C73.6878 10.3348 73.6583 14.4602 76.0129 14.4602C78.338 14.4602 78.4477 11.1322 78.4477 9.10413C78.4477 7.76945 78.3929 6.17476 78.0004 4.90942C77.6628 3.80874 76.9919 3.37974 76.0382 3.37974Z" fill="#1D1E25"/>
<path fill-rule="evenodd" clip-rule="evenodd" d="M88.6472 17.3895H85.6596C85.36 17.3679 85.1194 17.1209 85.1194 16.8175L85.1152 1.00071C85.1406 0.710373 85.3895 0.485038 85.6933 0.485038H88.4742C88.7358 0.498029 88.951 0.68004 89.0101 0.927043V3.34507H89.065C89.9047 1.18271 91.082 0.151367 93.1539 0.151367C94.5 0.151367 95.8124 0.649706 96.6563 2.01472C97.4412 3.28007 97.4412 5.40775 97.4412 6.93743V16.8912C97.4075 17.1685 97.1585 17.3895 96.8631 17.3895H93.8544C93.5801 17.3679 93.3523 17.1599 93.3227 16.8912V8.30245C93.3227 6.57343 93.5168 4.04274 91.4449 4.04274C90.7149 4.04274 90.0439 4.54541 89.7106 5.30808C89.2886 6.27443 89.2337 7.23644 89.2337 8.30245V16.8175C89.2295 17.1339 88.9679 17.3895 88.6472 17.3895" fill="#1D1E25"/>
<path fill-rule="evenodd" clip-rule="evenodd" d="M48.673 9.83677C48.673 11.0371 48.7025 12.0381 48.1117 13.1041C47.6349 13.9708 46.8754 14.5038 46.0356 14.5038C44.8836 14.5038 44.2084 13.6025 44.2084 12.2721C44.2084 9.6461 46.4998 9.16943 48.673 9.16943V9.83677ZM51.6986 17.3465C51.5002 17.5285 51.2133 17.5415 50.9896 17.4202C49.9938 16.5708 49.8123 16.1765 49.268 15.3662C47.6223 17.0908 46.4534 17.6065 44.3224 17.6065C41.7947 17.6065 39.8325 16.0075 39.8325 12.8051C39.8325 10.3048 41.1491 8.60176 43.0311 7.76975C44.66 7.03307 46.9344 6.90307 48.673 6.69941V6.30073C48.673 5.56839 48.7278 4.70171 48.3059 4.06905C47.943 3.50137 47.2425 3.26737 46.6222 3.26737C45.4786 3.26737 44.4616 3.86971 44.2127 5.11772C44.162 5.39506 43.9637 5.66806 43.6894 5.68106L40.782 5.36039C40.5372 5.30406 40.2629 5.10039 40.3347 4.71472C41.0014 1.09201 44.1916 0 47.0441 0C48.5042 0 50.4115 0.398672 51.5635 1.53402C53.0236 2.9337 52.8843 4.80138 52.8843 6.83374V11.6351C52.8843 13.0781 53.4667 13.7108 54.0152 14.4908C54.2051 14.7682 54.2473 15.1018 54.0026 15.3098C53.3907 15.8342 52.302 16.8092 51.7028 17.3552L51.6986 17.3465" fill="#1D1E25"/>
<path fill-rule="evenodd" clip-rule="evenodd" d="M9.34046 9.83677C9.34046 11.0371 9.36999 12.0381 8.77922 13.1041C8.30238 13.9708 7.54704 14.5038 6.70309 14.5038C5.55108 14.5038 4.88014 13.6025 4.88014 12.2721C4.88014 9.6461 7.17148 9.16943 9.34046 9.16943V9.83677ZM12.366 17.3465C12.1677 17.5285 11.8808 17.5415 11.6571 17.4202C10.6612 16.5708 10.484 16.1765 9.93544 15.3662C8.28973 17.0908 7.12507 17.6065 4.98985 17.6065C2.46642 17.6065 0.5 16.0075 0.5 12.8051C0.5 10.3048 1.82079 8.60176 3.6986 7.76975C5.32744 7.03307 7.6019 6.90307 9.34046 6.6994V6.30073C9.34046 5.56839 9.39531 4.70171 8.97755 4.06904C8.61043 3.50137 7.90995 3.26737 7.29386 3.26737C6.1503 3.26737 5.12911 3.86971 4.88014 5.11772C4.8295 5.39506 4.63117 5.66806 4.36111 5.68106L1.44945 5.36039C1.2047 5.30406 0.934637 5.10038 1.00215 4.71472C1.6731 1.09201 4.85904 0 7.71162 0C9.17166 0 11.079 0.398672 12.231 1.53402C13.6911 2.9337 13.5518 4.80138 13.5518 6.83374V11.6351C13.5518 13.0781 14.1341 13.7108 14.6827 14.4908C14.8768 14.7682 14.919 15.1018 14.6743 15.3098C14.0624 15.8342 12.9737 16.8092 12.3745 17.3552L12.366 17.3465" fill="#1D1E25"/>
</g>
<defs>
<clipPath id="clip0_1_4511">
<rect width="96.9412" height="30" fill="white" transform="translate(0.5)"/>
</clipPath>
</defs>
</svg>
