<svg width="90" height="30" viewBox="0 0 90 30" fill="none" xmlns="http://www.w3.org/2000/svg">
<g clip-path="url(#clip0_1_4539)">
<path d="M38.3141 15.385C38.3141 19.5491 35.0302 22.6176 31 22.6176C26.9699 22.6176 23.686 19.5491 23.686 15.385C23.686 11.1915 26.9699 8.15234 31 8.15234C35.0302 8.15234 38.3141 11.1915 38.3141 15.385ZM35.1123 15.385C35.1123 12.7828 33.209 11.0023 31 11.0023C28.7911 11.0023 26.8878 12.7828 26.8878 15.385C26.8878 17.961 28.7911 19.7676 31 19.7676C33.209 19.7676 35.1123 17.9578 35.1123 15.385Z" fill="#EA4335"/>
<path d="M54.0924 15.385C54.0924 19.5491 50.8085 22.6176 46.7784 22.6176C42.7483 22.6176 39.4644 19.5491 39.4644 15.385C39.4644 11.1947 42.7483 8.15234 46.7784 8.15234C50.8085 8.15234 54.0924 11.1915 54.0924 15.385ZM50.8906 15.385C50.8906 12.7828 48.9874 11.0023 46.7784 11.0023C44.5694 11.0023 42.6661 12.7828 42.6661 15.385C42.6661 17.961 44.5694 19.7676 46.7784 19.7676C48.9874 19.7676 50.8906 17.9578 50.8906 15.385Z" fill="#FBBC05"/>
<path d="M69.2135 8.5893V21.5741C69.2135 26.9154 66.0381 29.0969 62.2841 29.0969C58.7503 29.0969 56.6235 26.7523 55.8214 24.835L58.609 23.6839C59.1054 24.861 60.3216 26.2502 62.2808 26.2502C64.6837 26.2502 66.1728 24.7795 66.1728 22.011V20.9708H66.0611C65.3445 21.848 63.9638 22.6143 62.2216 22.6143C58.5761 22.6143 55.2363 19.4643 55.2363 15.411C55.2363 11.3284 58.5761 8.15234 62.2216 8.15234C63.9606 8.15234 65.3412 8.91865 66.0611 9.76973H66.1728V8.59256H69.2135V8.5893ZM66.3997 15.411C66.3997 12.8643 64.687 11.0023 62.5076 11.0023C60.2986 11.0023 58.4479 12.8643 58.4479 15.411C58.4479 17.9317 60.2986 19.7676 62.5076 19.7676C64.687 19.7676 66.3997 17.9317 66.3997 15.411Z" fill="#4285F4"/>
<path d="M74.2263 0.978516V22.1742H71.1035V0.978516H74.2263Z" fill="#34A853"/>
<path d="M86.396 17.7647L88.8812 19.4082C88.0791 20.5854 86.1462 22.6137 82.8064 22.6137C78.6645 22.6137 75.5713 19.4376 75.5713 15.381C75.5713 11.08 78.6908 8.14844 82.4481 8.14844C86.2317 8.14844 88.0824 11.1354 88.6872 12.7495L89.0192 13.5713L79.2727 17.5756C80.0189 19.0267 81.1793 19.7669 82.8064 19.7669C84.4369 19.7669 85.5677 18.9713 86.396 17.7647ZM78.7467 15.1626L85.262 12.4789C84.9036 11.5756 83.8254 10.9463 82.5566 10.9463C80.9294 10.9463 78.6645 12.3713 78.7467 15.1626Z" fill="#EA4335"/>
<path d="M11.8655 13.5033V10.4348H22.2892C22.3911 10.9696 22.4437 11.6022 22.4437 12.287C22.4437 14.5892 21.8093 17.4359 19.7646 19.4642C17.7759 21.5185 15.2349 22.6142 11.8688 22.6142C5.62967 22.6142 0.383301 17.5729 0.383301 11.3838C0.383301 5.19462 5.62967 0.15332 11.8688 0.15332C15.3203 0.15332 17.7792 1.4968 19.6266 3.24789L17.4439 5.4131C16.1191 4.18049 14.3243 3.2218 11.8655 3.2218C7.30943 3.2218 3.7461 6.86419 3.7461 11.3838C3.7461 15.9033 7.30943 19.5457 11.8655 19.5457C14.8207 19.5457 16.5037 18.3685 17.5819 17.299C18.4563 16.4316 19.0316 15.1925 19.2584 13.5001L11.8655 13.5033Z" fill="#4285F4"/>
</g>
<defs>
<clipPath id="clip0_1_4539">
<rect width="89.4118" height="30" fill="white" transform="translate(0.264648)"/>
</clipPath>
</defs>
</svg>
