<svg width="81" height="30" viewBox="0 0 81 30" fill="none" xmlns="http://www.w3.org/2000/svg">
<g clip-path="url(#clip0_1_4560)">
<path d="M65.972 28.7253C73.4811 28.7253 79.591 22.5408 79.591 14.9403C79.591 7.33527 73.4811 1.15527 65.972 1.15527C58.4614 1.15527 52.353 7.33527 52.353 14.9403C52.353 22.5408 58.4614 28.7253 65.972 28.7253ZM65.972 10.0248C68.648 10.0248 70.8274 12.2298 70.8274 14.9388C70.8274 17.6478 68.6466 19.8498 65.9705 19.8498C63.2929 19.8498 61.1166 17.6478 61.1166 14.9373C61.1166 12.2253 63.2944 10.0218 65.9705 10.0218L65.972 10.0248ZM14.5897 28.7253C22.0988 28.7253 28.2087 22.5408 28.2087 14.9403C28.2087 7.33527 22.0988 1.15527 14.5897 1.15527C7.0821 1.15527 0.970703 7.33527 0.970703 14.9403C0.970703 22.5408 7.0821 28.7253 14.5897 28.7253ZM14.5897 10.0248C17.2673 10.0248 19.4451 12.2298 19.4451 14.9388C19.4451 17.6478 17.2673 19.8498 14.5897 19.8498C11.9136 19.8498 9.73728 17.6478 9.73728 14.9373C9.73728 12.2253 11.9151 10.0218 14.5897 10.0218V10.0248ZM40.2734 9.71427L36.0922 1.33527H26.3023L35.4463 19.6653V28.2948H45.1019V19.6653L54.2459 1.33527H44.4516L40.2749 9.71427H40.2734Z" fill="#EE2E24"/>
</g>
<defs>
<clipPath id="clip0_1_4560">
<rect width="79.0588" height="30" fill="white" transform="translate(0.970703)"/>
</clipPath>
</defs>
</svg>
