<svg width="113" height="28" viewBox="0 0 113 28" fill="none" xmlns="http://www.w3.org/2000/svg">
<g clip-path="url(#clip0_1_4555)">
<path d="M40.222 10.2113V11.6989H40.2679C40.8073 10.9025 41.7029 9.96446 43.6881 9.96446C45.2324 9.96446 46.4172 10.7445 46.9249 11.9228H46.9708C47.4045 11.327 47.9016 10.8761 48.4587 10.5569C49.1181 10.1784 49.8515 9.96117 50.7753 9.96117C52.8662 9.96117 54.7174 11.3106 54.7174 14.7137V21.1679H51.5299V15.1646C51.5299 13.44 50.9022 12.4428 49.5976 12.4428C48.6421 12.4428 47.9475 13.0418 47.683 13.779C47.5913 14.0324 47.549 14.378 47.549 14.6677V21.1712H44.3615V14.9211C44.3615 13.4565 43.7586 12.4395 42.4716 12.4395C41.442 12.4395 40.7968 13.1965 40.5323 13.8448C40.4195 14.1213 40.3842 14.4406 40.3842 14.7401V21.1679H37.1932V10.2113H40.222ZM71.1696 10.2113V12.2782H71.2578C71.8431 10.6984 73.2323 9.96446 74.4523 9.96446C74.7591 9.96446 74.9283 9.9875 75.1751 10.0336V12.9035C74.8825 12.8641 74.611 12.8246 74.2302 12.8246C72.848 12.8246 71.8854 13.575 71.6421 14.7499C71.5892 14.9935 71.5716 15.2568 71.5716 15.5596V21.1712H68.2995V10.2113H71.1696ZM79.6179 6.58105V10.0303H82.3822V12.8213H79.6179V16.9386C79.6179 18.2716 79.981 18.9167 81.06 18.9167C81.5677 18.9167 81.9415 18.8574 82.2659 18.7817L82.3082 21.0955C81.8745 21.2469 80.9507 21.4114 80.0128 21.4114C78.9091 21.4114 77.9889 21.0527 77.4282 20.4965C76.7865 19.8612 76.4903 18.8212 76.4903 17.3402V6.58105H79.6179ZM34.9718 21.1679H31.7984V6.58105H34.9718V21.1679ZM26.5095 17.2546C26.5095 17.4553 26.4918 17.666 26.4319 17.847C26.1851 18.6073 25.3424 19.2491 24.2916 19.2491C23.4136 19.2491 22.7155 18.785 22.7155 17.8009C22.7155 16.2968 24.4926 15.8788 26.513 15.8887V17.2546H26.5095ZM29.6793 14.6315C29.6793 12.1466 28.544 9.96446 24.7042 9.96446C22.7331 9.96446 21.1676 10.4812 20.3143 10.942L20.9384 12.9365C21.7176 12.4757 22.9623 12.0972 24.14 12.0972C26.0899 12.0939 26.4072 13.1274 26.4072 13.7889V13.9469C22.1584 13.9403 19.4751 15.3127 19.4751 18.1103C19.4751 19.8185 20.8397 21.418 23.2162 21.418C24.6795 21.418 25.8995 20.875 26.6329 20.0028H26.7034C26.7034 20.0028 27.19 21.8952 29.8627 21.1712C29.7216 20.3813 29.6758 19.542 29.6758 18.5316V14.6315H29.6793ZM3.53413 6.58105C3.86204 8.12465 4.7929 12.6073 4.7929 12.6073C5.18429 14.4504 5.54394 16.3824 5.81544 17.9095H5.86481C6.12925 16.287 6.54532 14.7499 6.98959 12.8476L8.55866 6.58105H12.0318L13.4986 13.0089C13.8829 14.796 14.1897 16.175 14.433 17.8371H14.4788C14.7432 16.1586 15.0888 14.7236 15.4661 12.8871L16.8765 6.58105H20.2085L16.0796 21.1679C13.4492 21.7044 12.4408 20.717 12.0811 19.1503C11.7215 17.5804 11.0163 14.5953 11.0163 14.5953C10.6531 12.9595 10.371 11.8076 10.1736 10.129H10.1242C9.84212 11.7911 9.54593 12.9562 9.10871 14.592L7.37745 21.1712C4.69065 21.6714 3.75979 20.9309 3.245 18.92C2.80072 17.1986 0.0292969 6.58435 0.0292969 6.58435H3.53413V6.58105ZM63.0105 17.2546C63.0105 17.4553 62.9928 17.666 62.9329 17.847C62.6861 18.6073 61.8434 19.2491 60.7926 19.2491C59.9147 19.2491 59.2165 18.785 59.2165 17.8009C59.2165 16.2968 60.9936 15.8788 63.014 15.8887V17.2546H63.0105ZM66.1803 14.6315C66.1803 12.1466 65.045 9.96446 61.2052 9.96446C59.2341 9.96446 57.6686 10.4812 56.8153 10.942L57.4394 12.9365C58.2187 12.4757 59.4633 12.0972 60.641 12.0972C62.5874 12.0939 62.9082 13.1274 62.9082 13.7889V13.9469C58.6629 13.9403 55.9797 15.3127 55.9797 18.1103C55.9797 19.8185 57.3477 21.418 59.7207 21.418C61.1805 21.418 62.404 20.875 63.1339 20.0028H63.2079C63.2079 20.0028 63.6945 21.8952 66.3672 21.1712C66.2262 20.3813 66.1803 19.542 66.1803 18.5316V14.6315Z" fill="#041E42"/>
<path d="M95.2458 16.1445C95.5587 16.6772 95.5376 17.2718 95.2037 17.5433L89.4326 21.499C88.8316 21.8393 87.9318 21.4268 87.4222 20.5642C86.9091 19.6982 87.0005 18.7324 87.6015 18.3922L93.9911 15.4847C94.3918 15.3335 94.933 15.6118 95.2458 16.1445ZM102.841 16.1445C103.157 15.6118 103.695 15.3369 104.096 15.4812L110.489 18.3887C111.09 18.729 111.178 19.6947 110.668 20.5608C110.155 21.4234 109.252 21.8324 108.654 21.4956L102.883 17.5399C102.553 17.2718 102.528 16.6738 102.841 16.1445ZM99.0417 18.2891C99.6708 18.2891 100.187 18.6053 100.258 19.0211L100.88 25.8878C100.88 26.5682 100.068 27.125 99.0452 27.125C98.0259 27.125 97.2105 26.5682 97.2105 25.8878L97.8291 19.0211C97.8994 18.6053 98.4161 18.2891 99.0417 18.2891ZM102.883 10.4601L108.654 6.50098C109.252 6.16074 110.155 6.56972 110.668 7.43578C111.178 8.30185 111.09 9.26758 110.489 9.60782L104.096 12.5188C103.695 12.6631 103.154 12.3882 102.841 11.8555C102.528 11.3228 102.553 10.7282 102.883 10.4601ZM93.9911 12.5188L87.6015 9.60782C87.004 9.26758 86.9126 8.30185 87.4222 7.43578C87.9318 6.56972 88.8351 6.16074 89.4326 6.50098L95.2037 10.4601C95.5376 10.7248 95.5587 11.3228 95.2458 11.8555C94.933 12.3882 94.3918 12.6631 93.9911 12.5188ZM97.8291 8.97889L97.2105 2.11223C97.2105 1.43176 98.0224 0.875 99.0452 0.875C100.068 0.875 100.88 1.43176 100.88 2.11223L100.258 8.97889C100.187 9.3913 99.6708 9.71092 99.0417 9.71092C98.4161 9.71092 97.8994 9.3913 97.8291 8.97889ZM112.229 21.4715V21.2997H112.387C112.44 21.2997 112.475 21.3341 112.475 21.3856C112.475 21.4337 112.44 21.4715 112.387 21.4715H112.229ZM112.099 21.7843C112.099 21.8015 112.113 21.8186 112.134 21.8186H112.201C112.218 21.8186 112.236 21.8015 112.236 21.7843V21.5884H112.345L112.433 21.7946C112.44 21.8083 112.45 21.8186 112.464 21.8186H112.545C112.57 21.8186 112.587 21.7946 112.577 21.7705C112.545 21.7087 112.513 21.6434 112.482 21.5781C112.534 21.5609 112.615 21.5093 112.615 21.3856C112.615 21.255 112.506 21.1794 112.397 21.1794H112.134C112.116 21.1794 112.099 21.1966 112.099 21.2138V21.7843ZM111.814 21.499C111.814 21.2206 112.046 20.9938 112.331 20.9938C112.615 20.9938 112.847 21.2172 112.847 21.499C112.847 21.7774 112.619 22.0042 112.331 22.0042C112.042 22.0042 111.814 21.7774 111.814 21.499ZM111.691 21.499C111.691 21.8427 111.976 22.1245 112.331 22.1245C112.682 22.1245 112.97 21.8427 112.97 21.499C112.97 21.1553 112.682 20.8735 112.331 20.8735C111.976 20.8735 111.691 21.1553 111.691 21.499Z" fill="#FFC124"/>
</g>
<defs>
<clipPath id="clip0_1_4555">
<rect width="112.941" height="26.25" fill="white" transform="translate(0.0292969 0.875)"/>
</clipPath>
</defs>
</svg>
