<svg width="128" height="128" viewBox="0 0 128 128" fill="none" xmlns="http://www.w3.org/2000/svg">
<rect x="50.0283" y="80.4429" width="3.85427" height="41.4334" transform="rotate(-135 50.0283 80.4429)" fill="#161A34"/>
<rect x="52.8916" y="51.9634" width="3.85427" height="26.9799" transform="rotate(-90 52.8916 51.9634)" fill="#161A34"/>
<rect x="79.8911" y="75.1089" width="3.85427" height="26.9799" transform="rotate(180 79.8911 75.1089)" fill="#161A34"/>
<path d="M71.4263 8.06469L70.8526 11.2716C70.7052 11.4079 70.4878 11.5476 70.2003 11.6906C69.9174 11.8305 69.5562 11.9306 69.1168 11.9909C68.6775 12.0512 68.1483 12.026 67.5292 11.9152C67.0024 11.821 66.5356 11.6462 66.1289 11.3909C65.7229 11.1318 65.3913 10.8007 65.134 10.3975C64.8806 9.99504 64.7117 9.53031 64.6274 9.00333C64.5438 8.4725 64.5591 7.88793 64.6733 7.24962L64.7775 6.66707C64.8909 6.03261 65.0709 5.48146 65.3173 5.01363C65.5682 4.54264 65.8745 4.16093 66.2364 3.86851C66.5982 3.57609 67.0064 3.37927 67.461 3.27805C67.9202 3.17367 68.4189 3.16962 68.9573 3.26592C69.6456 3.38903 70.194 3.60618 70.6026 3.91737C71.0158 4.2254 71.3093 4.6033 71.4832 5.05106C71.6571 5.49883 71.7302 5.98811 71.7028 6.51891L70.2839 6.26511C70.29 5.96462 70.2464 5.68698 70.1531 5.4322C70.0636 5.1781 69.9075 4.96367 69.6848 4.78891C69.4667 4.611 69.1634 4.48731 68.775 4.41784C68.4405 4.358 68.135 4.36883 67.8585 4.45033C67.582 4.53183 67.3372 4.68049 67.124 4.89632C66.9146 5.11284 66.736 5.39041 66.5881 5.72904C66.4402 6.06767 66.3257 6.46385 66.2446 6.91759L66.1383 7.51168C66.0558 7.9731 66.0306 8.39122 66.0627 8.76602C66.0987 9.1415 66.187 9.4688 66.3276 9.74791C66.472 10.0277 66.6674 10.2551 66.9139 10.4302C67.161 10.6014 67.4538 10.7172 67.7922 10.7777C68.1229 10.8369 68.3988 10.8585 68.6199 10.8425C68.8417 10.8226 69.021 10.7852 69.1578 10.7303C69.2991 10.6723 69.4109 10.6129 69.4932 10.5523L69.7914 8.88535L68.0437 8.57274L68.2367 7.49416L71.4263 8.06469Z" fill="#161A34"/>
<path d="M78.9624 12.9373L78.5983 14.045L74.2955 12.6306L74.6596 11.5229L78.9624 12.9373ZM77.3548 4.65592L74.6907 12.7605L73.2936 12.3013L75.9577 4.19666L77.3548 4.65592ZM79.5877 9.13994L79.2291 10.2309L75.4885 9.00136L75.8471 7.91036L79.5877 9.13994ZM81.2346 5.93125L80.8686 7.04453L76.5937 5.63928L76.9596 4.52601L81.2346 5.93125Z" fill="#161A34"/>
<path d="M87.7122 8.16681L83.8988 15.7983L82.5937 15.1462L86.4071 7.51465L87.7122 8.16681ZM90.1076 9.36374L89.5837 10.412L83.5089 7.37649L84.0327 6.3282L90.1076 9.36374Z" fill="#161A34"/>
<path d="M98.2354 14.0078L93.1167 20.8328L91.9401 19.9504L97.0588 13.1254L98.2354 14.0078Z" fill="#161A34"/>
<path d="M106.491 20.8175L100.265 26.6495L99.2592 25.5762L101.104 18.6059L96.6436 22.7836L95.6382 21.7102L101.865 15.8782L102.87 16.9516L101.025 23.9384L105.494 19.7527L106.491 20.8175Z" fill="#161A34"/>
<path d="M114.795 30.864L107.386 35.0945L106.663 33.8275L114.071 29.597L114.795 30.864ZM116.123 33.1893L115.105 33.7704L111.737 27.8732L112.755 27.292L116.123 33.1893Z" fill="#161A34"/>
<path d="M116.491 42.9231L116.049 43.0795C115.442 43.2946 114.869 43.4083 114.33 43.4207C113.792 43.4331 113.301 43.3519 112.858 43.1772C112.416 43.0062 112.033 42.7483 111.708 42.4034C111.386 42.0572 111.138 41.6356 110.962 41.1385C110.787 40.645 110.716 40.1626 110.748 39.6913C110.785 39.2224 110.92 38.7789 111.153 38.3607C111.386 37.9425 111.715 37.5652 112.139 37.2287C112.564 36.896 113.08 36.6221 113.688 36.407L114.13 36.2506C114.737 36.0355 115.309 35.9243 115.845 35.9169C116.385 35.9082 116.876 35.9912 117.319 36.1659C117.767 36.3429 118.151 36.6027 118.471 36.9452C118.797 37.2901 119.046 37.7092 119.221 38.2027C119.397 38.6998 119.467 39.1847 119.431 39.6573C119.399 40.1286 119.264 40.5721 119.026 40.988C118.791 41.4025 118.461 41.7742 118.035 42.1033C117.613 42.4348 117.099 42.708 116.491 42.9231ZM115.559 41.6931L116.012 41.5328C116.461 41.3738 116.841 41.1895 117.152 40.9799C117.468 40.7727 117.712 40.5433 117.884 40.2918C118.062 40.0427 118.166 39.7757 118.198 39.491C118.233 39.2049 118.197 38.9091 118.089 38.6035C117.981 38.2978 117.823 38.0468 117.617 37.8505C117.415 37.6528 117.165 37.511 116.87 37.4251C116.579 37.3415 116.245 37.3167 115.868 37.3509C115.494 37.3837 115.082 37.4796 114.633 37.6386L114.18 37.7989C113.731 37.958 113.349 38.1429 113.034 38.3538C112.719 38.5647 112.472 38.7972 112.293 39.0513C112.118 39.3078 112.013 39.5772 111.976 39.8596C111.943 40.1406 111.98 40.434 112.088 40.7396C112.198 41.049 112.354 41.3024 112.557 41.5001C112.763 41.6964 113.013 41.8358 113.307 41.918C113.605 41.999 113.942 42.0206 114.319 41.9828C114.696 41.9487 115.109 41.8521 115.559 41.6931Z" fill="#161A34"/>
<path d="M122.995 49.9826L123.253 51.4245L117.64 52.4284C117.002 52.5426 116.443 52.4997 115.963 52.2999C115.483 52.1001 115.09 51.7814 114.786 51.3438C114.486 50.9093 114.284 50.3999 114.179 49.8154C114.071 49.2117 114.082 48.6541 114.213 48.1426C114.348 47.6305 114.606 47.1994 114.988 46.8493C115.37 46.5031 115.881 46.2729 116.519 46.1588L122.131 45.1549L122.389 46.5969L116.777 47.6007C116.373 47.6729 116.053 47.8016 115.816 47.9868C115.583 48.1713 115.428 48.4015 115.35 48.6773C115.273 48.9531 115.265 49.264 115.327 49.6101C115.389 49.9562 115.504 50.2432 115.671 50.4711C115.84 50.7029 116.065 50.8649 116.348 50.9573C116.634 51.0489 116.979 51.0586 117.383 50.9864L122.995 49.9826Z" fill="#161A34"/>
<path d="M118.707 59.826L118.736 61.2906C118.176 61.2545 117.675 61.1079 117.233 60.8508C116.794 60.5936 116.445 60.2272 116.186 59.7516C115.927 59.2761 115.79 58.6946 115.777 58.0073C115.767 57.48 115.852 57.0037 116.031 56.5783C116.214 56.1528 116.477 55.7863 116.818 55.4789C117.164 55.1714 117.583 54.9328 118.076 54.7631C118.569 54.5973 119.122 54.5084 119.736 54.4966L120.444 54.4829C121.058 54.4711 121.614 54.5405 122.113 54.691C122.612 54.8455 123.04 55.0716 123.398 55.3695C123.759 55.6672 124.037 56.0272 124.233 56.4492C124.429 56.8752 124.532 57.3558 124.542 57.8908C124.555 58.5704 124.441 59.1469 124.2 59.6204C123.96 60.0939 123.621 60.4638 123.185 60.73C122.748 61.0002 122.246 61.1701 121.677 61.2397L121.648 59.7751C122.015 59.729 122.327 59.637 122.586 59.4992C122.846 59.3652 123.041 59.17 123.173 58.9135C123.309 58.6569 123.373 58.3236 123.365 57.9135C123.358 57.5777 123.29 57.286 123.16 57.0384C123.03 56.7909 122.843 56.5855 122.597 56.4222C122.352 56.2589 122.051 56.1378 121.694 56.0587C121.341 55.9835 120.938 55.9502 120.485 55.959L119.764 55.9729C119.334 55.9812 118.945 56.0258 118.594 56.1068C118.248 56.1916 117.952 56.3146 117.705 56.4756C117.458 56.6406 117.269 56.8474 117.137 57.0961C117.005 57.3448 116.942 57.641 116.949 57.9846C116.957 58.4025 117.03 58.7391 117.168 58.9943C117.305 59.2534 117.503 59.4469 117.759 59.5748C118.019 59.7065 118.335 59.7902 118.707 59.826Z" fill="#161A34"/>
<path d="M120.783 69.8085L119.632 69.6208L120.361 65.1506L121.512 65.3383L120.783 69.8085ZM124.97 66.2703L116.55 64.897L116.787 63.4454L125.207 64.8188L124.97 66.2703ZM124.117 71.4981L115.697 70.1247L115.933 68.679L124.353 70.0524L124.117 71.4981Z" fill="#161A34"/>
<path d="M108.782 98.3127L106.286 96.2186C106.242 96.0229 106.229 95.7647 106.248 95.4442C106.267 95.1292 106.36 94.7661 106.527 94.3551C106.693 93.944 106.979 93.4976 107.383 93.0159C107.727 92.6059 108.111 92.2881 108.535 92.0625C108.962 91.8394 109.414 91.7167 109.892 91.6943C110.367 91.6749 110.854 91.7599 111.353 91.9491C111.855 92.1409 112.354 92.4452 112.851 92.862L113.304 93.2424C113.798 93.6567 114.186 94.0872 114.47 94.5338C114.753 94.9859 114.932 95.4416 115.005 95.901C115.078 96.3604 115.046 96.8124 114.907 97.2571C114.769 97.7072 114.525 98.1418 114.173 98.5607C113.724 99.0963 113.262 99.4638 112.789 99.6633C112.316 99.8682 111.842 99.9346 111.367 99.8625C110.892 99.7903 110.432 99.6102 109.985 99.3221L110.911 98.2179C111.169 98.3729 111.431 98.4733 111.699 98.5192C111.964 98.5681 112.227 98.5395 112.49 98.4334C112.753 98.3328 113.011 98.1313 113.265 97.8291C113.483 97.5688 113.626 97.2984 113.693 97.0181C113.76 96.7377 113.753 96.4514 113.672 96.159C113.588 95.8696 113.436 95.5765 113.216 95.2797C112.996 94.9829 112.71 94.6863 112.357 94.39L111.894 94.0021C111.535 93.7007 111.185 93.4707 110.844 93.312C110.501 93.1563 110.173 93.0699 109.861 93.0528C109.546 93.0388 109.252 93.095 108.977 93.2216C108.706 93.3507 108.459 93.547 108.238 93.8103C108.023 94.0676 107.866 94.2961 107.77 94.4959C107.677 94.6981 107.62 94.8722 107.6 95.0182C107.58 95.1697 107.575 95.2962 107.587 95.3978L108.884 96.4863L110.025 95.1263L110.865 95.8306L108.782 98.3127Z" fill="#161A34"/>
<path d="M100.528 102.657L99.7492 101.789L103.122 98.7654L103.9 99.6336L100.528 102.657ZM108.507 105.395L102.812 99.0431L103.907 98.0613L109.602 104.414L108.507 105.395ZM103.507 105.093L102.74 104.238L105.672 101.61L106.438 102.465L103.507 105.093ZM105.466 108.121L104.684 107.249L108.034 104.245L108.817 105.118L105.466 108.121Z" fill="#161A34"/>
<path d="M100.455 112.451L95.7179 105.355L96.9313 104.545L101.668 111.641L100.455 112.451ZM98.2278 113.938L97.5771 112.963L103.225 109.192L103.876 110.167L98.2278 113.938Z" fill="#161A34"/>
<path d="M90.2699 118.605L86.8879 110.773L88.2382 110.19L91.6201 118.022L90.2699 118.605Z" fill="#161A34"/>
<path d="M79.9486 122.455L78.0317 114.142L79.4648 113.811L84.5663 118.907L83.1931 112.952L84.6262 112.621L86.5431 120.934L85.11 121.265L79.9945 116.161L81.3703 122.127L79.9486 122.455Z" fill="#161A34"/>
<path d="M67.1002 124.557L67.1661 116.026L68.625 116.037L68.5592 124.568L67.1002 124.557ZM64.4226 124.536L64.4316 123.365L71.2225 123.417L71.2134 124.589L64.4226 124.536Z" fill="#161A34"/>
<path d="M55.7725 119.95L55.8586 119.49C55.9769 118.856 56.1656 118.303 56.4247 117.831C56.6838 117.359 56.9999 116.975 57.3731 116.679C57.7424 116.382 58.1577 116.18 58.6191 116.071C59.0797 115.966 59.5693 115.962 60.0876 116.059C60.6022 116.155 61.0553 116.335 61.4471 116.599C61.8344 116.866 62.1505 117.206 62.3956 117.617C62.6406 118.028 62.8026 118.502 62.8814 119.037C62.9564 119.571 62.9347 120.156 62.8164 120.789L62.7303 121.25C62.612 121.883 62.4217 122.434 62.1595 122.902C61.8966 123.373 61.5786 123.757 61.2054 124.053C60.8277 124.352 60.4104 124.554 59.9536 124.659C59.4923 124.768 59.0043 124.774 58.4898 124.678C57.9714 124.581 57.5167 124.399 57.1256 124.131C56.7338 123.867 56.4176 123.528 56.1771 123.114C55.9359 122.703 55.7798 122.231 55.7086 121.697C55.6329 121.166 55.6542 120.584 55.7725 119.95ZM57.3043 119.76L57.2161 120.232C57.1286 120.7 57.0976 121.122 57.123 121.496C57.1439 121.873 57.2201 122.2 57.3515 122.475C57.4784 122.753 57.6571 122.977 57.8876 123.147C58.1174 123.321 58.3916 123.438 58.7103 123.497C59.029 123.557 59.325 123.547 59.5983 123.466C59.8708 123.39 60.1183 123.246 60.3409 123.033C60.5588 122.823 60.7476 122.547 60.9072 122.203C61.066 121.863 61.1892 121.459 61.2767 120.99L61.3649 120.518C61.4524 120.05 61.4838 119.626 61.4591 119.248C61.4343 118.87 61.357 118.54 61.2269 118.257C61.0924 117.978 60.9121 117.751 60.6862 117.578C60.4596 117.408 60.1869 117.294 59.8682 117.234C59.5456 117.174 59.2481 117.182 58.9755 117.258C58.7023 117.338 58.4563 117.485 58.2376 117.699C58.0182 117.916 57.8306 118.197 57.6749 118.541C57.5153 118.885 57.3918 119.291 57.3043 119.76Z" fill="#161A34"/>
<path d="M46.5033 122.059L45.1261 121.56L47.0687 116.2C47.2897 115.59 47.6069 115.128 48.0204 114.812C48.4339 114.497 48.9062 114.317 49.4375 114.273C49.9637 114.231 50.506 114.311 51.0642 114.513C51.6408 114.722 52.1177 115.011 52.4948 115.381C52.8707 115.754 53.1145 116.193 53.2261 116.699C53.3341 117.203 53.2777 117.76 53.0567 118.37L51.1141 123.73L49.7369 123.231L51.6795 117.871C51.8193 117.485 51.8683 117.144 51.8266 116.846C51.7836 116.552 51.6622 116.302 51.4624 116.097C51.2626 115.892 50.9974 115.729 50.6669 115.609C50.3364 115.49 50.0305 115.445 49.7491 115.476C49.4642 115.506 49.211 115.62 48.9896 115.818C48.7669 116.02 48.5856 116.313 48.4459 116.699L46.5033 122.059Z" fill="#161A34"/>
<path d="M40.0335 113.362L38.7535 112.65C39.066 112.184 39.4448 111.825 39.8896 111.572C40.3325 111.322 40.8247 111.205 41.3661 111.22C41.9075 111.235 42.4786 111.41 43.0794 111.744C43.5402 112.001 43.9093 112.313 44.1868 112.682C44.4623 113.055 44.647 113.466 44.7408 113.916C44.8327 114.37 44.828 114.852 44.7267 115.363C44.622 115.873 44.4206 116.395 44.1224 116.931L43.7776 117.551C43.4794 118.087 43.1398 118.533 42.7586 118.888C42.374 119.242 41.9631 119.498 41.5259 119.657C41.0868 119.82 40.6357 119.879 40.1725 119.836C39.7058 119.791 39.2387 119.638 38.771 119.378C38.1771 119.048 37.7361 118.659 37.4481 118.213C37.16 117.767 37.0107 117.288 37 116.777C36.986 116.264 37.092 115.744 37.3181 115.217L38.5981 115.929C38.4537 116.269 38.3759 116.586 38.3647 116.879C38.3501 117.17 38.4205 117.438 38.5759 117.68C38.7294 117.927 38.9853 118.15 39.3437 118.349C39.6373 118.512 39.9237 118.6 40.2029 118.613C40.4821 118.625 40.754 118.566 41.0185 118.436C41.2831 118.306 41.5393 118.107 41.7873 117.838C42.0299 117.571 42.2614 117.239 42.4817 116.843L42.8321 116.213C43.0411 115.838 43.1986 115.479 43.3047 115.135C43.4054 114.793 43.4483 114.475 43.4334 114.181C43.415 113.885 43.3315 113.617 43.1829 113.378C43.0344 113.139 42.8099 112.935 42.5095 112.768C42.1443 112.565 41.8168 112.459 41.5269 112.45C41.2336 112.438 40.9672 112.511 40.7277 112.669C40.4829 112.827 40.2515 113.059 40.0335 113.362Z" fill="#161A34"/>
<path d="M30.5682 110.263L31.3079 109.361L34.8091 112.235L34.0694 113.136L30.5682 110.263ZM31.5285 115.659L36.9407 109.065L38.0776 109.998L32.6654 116.592L31.5285 115.659ZM27.434 112.299L32.8462 105.704L33.9786 106.634L28.5663 113.228L27.434 112.299Z" fill="#161A34"/>
<path d="M11.9363 85.7654L14.995 84.6439C15.187 84.7024 15.4173 84.8198 15.6857 84.996C15.9492 85.1698 16.2177 85.4312 16.4913 85.7802C16.7649 86.1293 17.01 86.599 17.2265 87.1895C17.4107 87.6919 17.4951 88.1831 17.4797 88.6631C17.4607 89.1443 17.3419 89.5977 17.1235 90.0231C16.9037 90.4449 16.5875 90.825 16.1749 91.1636C15.7586 91.5034 15.2461 91.785 14.6373 92.0082L14.0817 92.2119C13.4766 92.4338 12.9099 92.5563 12.3816 92.5794C11.8484 92.6002 11.3643 92.5281 10.9293 92.3631C10.4943 92.198 10.1185 91.9448 9.8019 91.6032C9.48026 91.2593 9.2253 90.8306 9.03703 90.3172C8.79632 89.6607 8.70731 89.0776 8.77002 88.5678C8.82771 88.0557 9.00607 87.6117 9.30509 87.2358C9.6041 86.8599 9.98974 86.5499 10.462 86.3061L10.9582 87.6593C10.6956 87.8056 10.4778 87.9832 10.3049 88.1922C10.1305 88.3976 10.0241 88.6405 9.98543 88.921C9.94179 89.1991 9.98788 89.5234 10.1237 89.8938C10.2407 90.2128 10.4041 90.4712 10.6139 90.6689C10.8237 90.8666 11.0755 91.0031 11.3694 91.0784C11.6619 91.15 11.9917 91.1643 12.3587 91.1213C12.7257 91.0782 13.1256 90.9774 13.5583 90.8187L14.1249 90.6109C14.565 90.4495 14.9388 90.2605 15.2463 90.0437C15.5524 89.8233 15.7905 89.582 15.9607 89.3199C16.1295 89.0541 16.2274 88.7707 16.2543 88.4696C16.2775 88.1699 16.2299 87.8586 16.1116 87.5359C15.9959 87.2205 15.8754 86.9713 15.7501 86.7884C15.6212 86.6069 15.4985 86.4709 15.3821 86.3804C15.2607 86.2876 15.1531 86.221 15.0592 86.1806L13.4693 86.7635L14.0805 88.4304L13.0518 88.8076L11.9363 85.7654Z" fill="#161A34"/>
<path d="M12.2871 76.4908L13.4281 76.2505L14.3615 80.6826L13.2205 80.9229L12.2871 76.4908ZM5.92762 82.0336L14.2757 80.2755L14.5788 81.7146L6.2307 83.4727L5.92762 82.0336ZM8.68794 77.8535L9.81172 77.6169L10.6232 81.4699L9.49938 81.7065L8.68794 77.8535ZM5.08599 78.0373L6.23271 77.7958L7.16007 82.1992L6.01335 82.4407L5.08599 78.0373Z" fill="#161A34"/>
<path d="M3.80926 71.4024L12.3243 70.8761L12.4143 72.3323L3.89926 72.8586L3.80926 71.4024ZM3.64406 68.7298L4.8137 68.6575L5.23266 75.4356L4.06302 75.5079L3.64406 68.7298Z" fill="#161A34"/>
<path d="M3.57772 59.513L12.052 60.4973L11.8823 61.9582L3.40804 60.9739L3.57772 59.513Z" fill="#161A34"/>
<path d="M5.37046 48.6981L13.5333 51.178L13.1058 52.5852L6.14622 54.4697L11.9937 56.2461L11.5662 57.6533L3.40329 55.1735L3.83078 53.7663L10.805 51.874L4.94637 50.0941L5.37046 48.6981Z" fill="#161A34"/>
<path d="M9.87815 36.6171L17.2394 40.9293L16.5019 42.1882L9.14071 37.876L9.87815 36.6171ZM11.2316 34.3066L12.2428 34.899L8.81025 40.7586L7.79909 40.1663L11.2316 34.3066Z" fill="#161A34"/>
<path d="M19.5651 29.02L19.9209 29.3252C20.41 29.7449 20.7941 30.185 21.0731 30.6457C21.3521 31.1064 21.5263 31.5723 21.5956 32.0435C21.6674 32.5117 21.6348 32.9727 21.4977 33.4264C21.3577 33.8776 21.116 34.3033 20.7726 34.7035C20.4318 35.1008 20.0491 35.4029 19.6245 35.6099C19.1994 35.8114 18.7475 35.9152 18.2687 35.9214C17.7899 35.9275 17.2991 35.8307 16.7963 35.6309C16.296 35.4282 15.8013 35.1169 15.3121 34.6973L14.9563 34.3921C14.4671 33.9724 14.0858 33.532 13.8123 33.0709C13.5358 32.6073 13.363 32.1399 13.2937 31.6687C13.224 31.192 13.2579 30.7295 13.3954 30.2813C13.5324 29.8276 13.7713 29.4021 14.1122 29.0049C14.4555 28.6046 14.841 28.3023 15.2686 28.0978C15.6932 27.8908 16.1452 27.787 16.6244 27.7864C17.1006 27.7832 17.5876 27.8845 18.0853 28.0902C18.5827 28.2904 19.0759 28.6003 19.5651 29.02ZM18.9632 30.4414L18.5986 30.1286C18.2369 29.8183 17.8877 29.5804 17.5509 29.415C17.2137 29.2441 16.8932 29.1468 16.5894 29.1229C16.2853 29.0935 16.0018 29.136 15.739 29.2503C15.4733 29.362 15.2349 29.5409 15.0238 29.787C14.8127 30.033 14.6734 30.2944 14.6059 30.571C14.5355 30.8451 14.5366 31.1318 14.6094 31.4309C14.6817 31.7246 14.8267 32.0265 15.0443 32.3368C15.259 32.6445 15.5472 32.9535 15.9089 33.2638L16.2735 33.5766C16.6352 33.8869 16.9859 34.126 17.3257 34.294C17.6654 34.4619 17.9901 34.5603 18.2998 34.5893C18.6091 34.6127 18.8953 34.5701 19.1585 34.4613C19.4187 34.35 19.6543 34.1713 19.8654 33.9252C20.0791 33.6762 20.2211 33.4146 20.2916 33.1405C20.3591 32.8639 20.3552 32.5774 20.2799 32.2812C20.2016 31.9825 20.0524 31.6795 19.8322 31.3722C19.6146 31.062 19.3249 30.7517 18.9632 30.4414Z" fill="#161A34"/>
<path d="M22.368 19.9303L23.4866 18.9846L27.1672 23.3386C27.5859 23.8338 27.829 24.3392 27.8967 24.8549C27.9643 25.3706 27.8851 25.8698 27.6589 26.3525C27.4332 26.8298 27.0936 27.26 26.6402 27.6434C26.1718 28.0393 25.6836 28.3088 25.1754 28.4519C24.6648 28.5921 24.1623 28.5846 23.668 28.4296C23.1768 28.272 22.7218 27.9456 22.3032 27.4504L18.6226 23.0965L19.7413 22.1508L23.4219 26.5047C23.6867 26.8179 23.9585 27.0306 24.2374 27.1427C24.5138 27.2517 24.7907 27.2708 25.0683 27.1998C25.3459 27.1288 25.6189 26.9799 25.8874 26.7529C26.1559 26.5259 26.3467 26.2828 26.46 26.0234C26.5761 25.7615 26.6035 25.4852 26.5419 25.1945C26.4778 24.9009 26.3134 24.5975 26.0486 24.2842L22.368 19.9303Z" fill="#161A34"/>
<path d="M33.182 18.602L34.4377 17.8477C34.6851 18.3507 34.8076 18.858 34.8052 19.3699C34.8008 19.8783 34.657 20.3634 34.3739 20.8251C34.0908 21.2869 33.6545 21.6947 33.0652 22.0488C32.6131 22.3203 32.158 22.4844 31.6998 22.5409C31.2396 22.594 30.7911 22.549 30.3542 22.4059C29.9153 22.2594 29.4995 22.0148 29.1068 21.672C28.7174 21.3272 28.3648 20.8919 28.049 20.3662L27.6839 19.7585C27.3681 19.2327 27.1511 18.716 27.0329 18.2083C26.9181 17.6985 26.9008 17.2145 26.9809 16.7563C27.0591 16.2947 27.2323 15.8739 27.5008 15.4939C27.7726 15.1119 28.1378 14.7831 28.5966 14.5075C29.1792 14.1575 29.7358 13.969 30.2664 13.9419C30.7969 13.9148 31.2864 14.0241 31.7347 14.2697C32.1863 14.5133 32.5841 14.8645 32.928 15.3232L31.6723 16.0775C31.4497 15.7829 31.2142 15.5576 30.9655 15.4016C30.7203 15.2436 30.4536 15.1714 30.1655 15.185C29.8755 15.1952 29.5546 15.3059 29.203 15.5171C28.9151 15.6901 28.6961 15.8945 28.5462 16.1304C28.3962 16.3663 28.3116 16.6313 28.2924 16.9254C28.2731 17.2195 28.3181 17.541 28.4275 17.89C28.5382 18.2336 28.7103 18.5996 28.9436 18.9881L29.3147 19.6059C29.536 19.9742 29.7689 20.29 30.0136 20.5531C30.2596 20.8109 30.5139 21.0067 30.7766 21.1406C31.0426 21.2724 31.3163 21.3335 31.5977 21.324C31.879 21.3145 32.1671 21.2212 32.4617 21.0442C32.82 20.829 33.0755 20.5981 33.2281 20.3514C33.3841 20.1028 33.4536 19.8355 33.4367 19.5494C33.4211 19.258 33.3362 18.9422 33.182 18.602Z" fill="#161A34"/>
<path d="M40.4697 11.9805L40.8835 13.0707L36.6489 14.6778L36.2351 13.5876L40.4697 11.9805ZM35.3108 10.128L38.3378 18.1042L36.9628 18.626L33.9357 10.6498L35.3108 10.128ZM40.263 8.24859L43.29 16.2248L41.9205 16.7445L38.8935 8.76834L40.263 8.24859Z" fill="#161A34"/>
<circle cx="54.5" cy="8.5" r="1.5" fill="#161A34"/>
<circle cx="116.5" cy="82.5" r="1.5" fill="#161A34"/>
<circle cx="21.5" cy="100.5" r="1.5" fill="#161A34"/>
</svg>
