<svg width="40" height="40" viewBox="0 0 40 40" fill="none" xmlns="http://www.w3.org/2000/svg">
<path d="M15.0007 8.33333H11.6673C9.82637 8.33333 8.33398 9.82572 8.33398 11.6667V31.6667C8.33398 33.5076 9.82637 35 11.6673 35H28.334C30.1749 35 31.6673 33.5076 31.6673 31.6667V11.6667C31.6673 9.82572 30.1749 8.33333 28.334 8.33333H25.0007M15.0007 8.33333C15.0007 10.1743 16.493 11.6667 18.334 11.6667H21.6673C23.5083 11.6667 25.0007 10.1743 25.0007 8.33333M15.0007 8.33333C15.0007 6.49238 16.493 5 18.334 5H21.6673C23.5083 5 25.0007 6.49238 25.0007 8.33333M20.0007 20H25.0007M20.0007 26.6667H25.0007M15.0007 20H15.0173M15.0007 26.6667H15.0173" stroke="white" stroke-width="3" stroke-linecap="round"/>
</svg>
