<svg width="367" height="261" viewBox="0 0 367 261" fill="none" xmlns="http://www.w3.org/2000/svg">
<g clip-path="url(#clip0_1_2881)">
<mask id="mask0_1_2881" style="mask-type:luminance" maskUnits="userSpaceOnUse" x="-1" y="8" width="369" height="261">
<rect x="-0.0332031" y="8.87842" width="367.22" height="260" transform="rotate(0.0158183 -0.0332031 8.87842)" fill="white"/>
</mask>
<g mask="url(#mask0_1_2881)">
<g clip-path="url(#clip1_1_2881)">
<path d="M336.77 250.608C336.77 251.528 336.603 252.324 336.271 252.994C335.938 253.664 335.482 254.181 334.902 254.545C334.323 254.908 333.661 255.09 332.916 255.09C332.172 255.09 331.51 254.908 330.931 254.544C330.351 254.18 329.896 253.663 329.563 252.992C329.231 252.322 329.065 251.526 329.065 250.606C329.066 249.685 329.232 248.89 329.565 248.22C329.897 247.549 330.353 247.032 330.933 246.669C331.513 246.305 332.175 246.124 332.919 246.124C333.663 246.124 334.325 246.306 334.905 246.67C335.484 247.034 335.94 247.551 336.272 248.221C336.604 248.892 336.77 249.687 336.77 250.608ZM335.747 250.608C335.747 249.852 335.621 249.214 335.369 248.694C335.119 248.174 334.779 247.781 334.35 247.513C333.924 247.246 333.447 247.113 332.919 247.112C332.39 247.112 331.912 247.246 331.482 247.513C331.056 247.78 330.717 248.173 330.464 248.693C330.214 249.213 330.088 249.85 330.088 250.606C330.088 251.362 330.213 252 330.463 252.519C330.715 253.039 331.055 253.433 331.481 253.7C331.91 253.967 332.388 254.101 332.917 254.101C333.445 254.101 333.922 253.968 334.349 253.701C334.778 253.434 335.117 253.041 335.367 252.521C335.62 252.001 335.747 251.363 335.747 250.608ZM341.068 255.109C340.455 255.109 339.926 254.964 339.483 254.674C339.04 254.384 338.699 253.985 338.461 253.476C338.222 252.968 338.103 252.387 338.103 251.733C338.104 251.068 338.226 250.482 338.47 249.973C338.718 249.462 339.062 249.063 339.502 248.776C339.945 248.487 340.462 248.342 341.053 248.342C341.514 248.342 341.928 248.427 342.298 248.598C342.667 248.769 342.969 249.007 343.205 249.314C343.441 249.621 343.587 249.979 343.644 250.388L342.638 250.388C342.561 250.09 342.391 249.825 342.127 249.595C341.866 249.362 341.513 249.246 341.07 249.245C340.678 249.245 340.334 249.347 340.039 249.552C339.746 249.754 339.517 250.039 339.352 250.408C339.19 250.775 339.109 251.205 339.109 251.699C339.109 252.205 339.188 252.645 339.347 253.021C339.509 253.396 339.736 253.687 340.029 253.894C340.324 254.102 340.671 254.206 341.069 254.206C341.33 254.206 341.567 254.16 341.78 254.069C341.993 253.979 342.174 253.848 342.322 253.678C342.469 253.507 342.575 253.303 342.637 253.064L343.643 253.064C343.586 253.451 343.445 253.799 343.221 254.108C342.999 254.415 342.705 254.659 342.338 254.841C341.975 255.02 341.551 255.109 341.068 255.109ZM347.961 248.429L347.961 249.281L344.569 249.28L344.569 248.428L347.961 248.429ZM345.558 246.86L346.564 246.861L346.562 253.099C346.562 253.383 346.603 253.596 346.685 253.738C346.771 253.878 346.878 253.971 347.009 254.02C347.143 254.065 347.283 254.088 347.431 254.088C347.542 254.088 347.633 254.082 347.704 254.071C347.775 254.057 347.832 254.046 347.874 254.037L348.078 254.941C348.01 254.966 347.915 254.992 347.793 255.017C347.671 255.046 347.516 255.06 347.328 255.06C347.044 255.06 346.766 254.998 346.493 254.876C346.223 254.754 345.999 254.568 345.82 254.318C345.644 254.068 345.556 253.752 345.556 253.372L345.558 246.86Z" fill="#808D9E"/>
<path fill-rule="evenodd" clip-rule="evenodd" d="M337.844 237.972L337.895 54.9717L339.115 54.972L339.064 237.972L337.844 237.972Z" fill="#E9ECF2"/>
</g>
<g clip-path="url(#clip2_1_2881)">
<path d="M280.847 248.411C280.796 247.979 280.589 247.644 280.225 247.405C279.861 247.166 279.416 247.047 278.887 247.047C278.501 247.046 278.163 247.109 277.873 247.234C277.586 247.359 277.361 247.531 277.199 247.749C277.04 247.968 276.961 248.217 276.961 248.495C276.96 248.728 277.016 248.928 277.127 249.096C277.24 249.261 277.385 249.398 277.561 249.509C277.737 249.617 277.922 249.707 278.115 249.778C278.308 249.846 278.486 249.902 278.648 249.944L279.534 250.183C279.761 250.243 280.014 250.325 280.292 250.431C280.574 250.536 280.842 250.679 281.098 250.861C281.356 251.04 281.569 251.27 281.737 251.552C281.904 251.833 281.988 252.178 281.988 252.587C281.988 253.059 281.864 253.485 281.617 253.866C281.372 254.246 281.014 254.549 280.543 254.773C280.074 254.997 279.504 255.109 278.834 255.109C278.209 255.109 277.668 255.008 277.21 254.806C276.756 254.604 276.398 254.323 276.137 253.962C275.878 253.601 275.732 253.182 275.698 252.705L276.789 252.705C276.817 253.035 276.928 253.307 277.121 253.523C277.317 253.737 277.564 253.896 277.862 254.001C278.164 254.103 278.487 254.154 278.834 254.155C279.237 254.155 279.6 254.089 279.921 253.959C280.242 253.825 280.496 253.641 280.684 253.405C280.871 253.166 280.965 252.888 280.965 252.57C280.965 252.28 280.884 252.044 280.722 251.862C280.561 251.681 280.348 251.533 280.083 251.419C279.819 251.305 279.534 251.206 279.227 251.121L278.153 250.813C277.471 250.617 276.932 250.337 276.534 249.974C276.136 249.61 275.938 249.134 275.938 248.546C275.938 248.057 276.07 247.631 276.334 247.267C276.602 246.901 276.96 246.617 277.409 246.416C277.86 246.211 278.365 246.109 278.921 246.109C279.484 246.109 279.984 246.21 280.421 246.412C280.859 246.611 281.205 246.884 281.461 247.231C281.719 247.577 281.856 247.971 281.87 248.411L280.847 248.411ZM286.333 255.094C285.702 255.094 285.158 254.955 284.701 254.676C284.246 254.395 283.895 254.003 283.648 253.5C283.404 252.994 283.282 252.406 283.282 251.735C283.283 251.065 283.405 250.474 283.649 249.963C283.897 249.449 284.241 249.048 284.681 248.761C285.124 248.472 285.641 248.327 286.232 248.327C286.573 248.327 286.91 248.384 287.242 248.498C287.575 248.612 287.877 248.796 288.15 249.052C288.422 249.305 288.64 249.64 288.801 250.058C288.963 250.476 289.044 250.99 289.044 251.601L289.044 252.027L283.998 252.025L283.999 251.156L288.021 251.157C288.021 250.788 287.948 250.458 287.8 250.168C287.655 249.879 287.448 249.65 287.178 249.482C286.911 249.314 286.596 249.231 286.232 249.23C285.831 249.23 285.485 249.33 285.192 249.528C284.902 249.724 284.679 249.98 284.523 250.295C284.367 250.611 284.288 250.949 284.288 251.309L284.288 251.889C284.288 252.383 284.373 252.802 284.543 253.146C284.717 253.487 284.957 253.747 285.263 253.926C285.57 254.102 285.927 254.191 286.333 254.191C286.597 254.191 286.836 254.154 287.049 254.08C287.265 254.003 287.451 253.89 287.607 253.739C287.763 253.586 287.884 253.396 287.97 253.168L288.941 253.441C288.839 253.771 288.667 254.061 288.425 254.311C288.184 254.558 287.885 254.751 287.53 254.89C287.175 255.026 286.776 255.094 286.333 255.094ZM290.572 257.413L290.575 248.413L291.546 248.414L291.546 249.454L291.665 249.454C291.739 249.34 291.841 249.195 291.972 249.019C292.106 248.84 292.296 248.681 292.543 248.542C292.793 248.4 293.131 248.329 293.558 248.329C294.109 248.329 294.594 248.467 295.015 248.743C295.435 249.019 295.763 249.409 295.999 249.915C296.235 250.421 296.352 251.017 296.352 251.705C296.352 252.398 296.234 252.999 295.998 253.507C295.762 254.013 295.435 254.405 295.017 254.683C294.6 254.959 294.118 255.096 293.573 255.096C293.152 255.096 292.816 255.026 292.563 254.887C292.31 254.745 292.115 254.584 291.979 254.405C291.843 254.223 291.738 254.073 291.664 253.954L291.579 253.954L291.578 257.414L290.572 257.413ZM291.562 251.686C291.562 252.181 291.634 252.617 291.779 252.995C291.924 253.37 292.136 253.664 292.414 253.877C292.692 254.087 293.033 254.193 293.437 254.193C293.857 254.193 294.208 254.082 294.489 253.861C294.773 253.636 294.987 253.335 295.129 252.957C295.274 252.577 295.346 252.153 295.346 251.688C295.347 251.227 295.276 250.812 295.134 250.443C294.995 250.071 294.783 249.777 294.499 249.561C294.218 249.342 293.864 249.233 293.438 249.232C293.029 249.232 292.685 249.336 292.407 249.543C292.128 249.748 291.918 250.035 291.776 250.404C291.634 250.77 291.562 251.198 291.562 251.686Z" fill="#808D9E"/>
<path fill-rule="evenodd" clip-rule="evenodd" d="M285.385 237.958L285.436 54.9575L286.656 54.9579L286.605 237.958L285.385 237.958Z" fill="#E9ECF2"/>
</g>
<g clip-path="url(#clip3_1_2881)">
<path d="M221.917 254.94L220.809 254.94L224.016 246.213L225.107 246.214L228.309 254.942L227.201 254.941L224.595 247.594L224.527 247.594L221.917 254.94ZM222.327 251.531L226.793 251.532L226.793 252.47L222.327 252.469L222.327 251.531ZM233.658 252.267L233.659 248.398L234.665 248.398L234.663 254.944L233.657 254.943L233.658 253.835L233.589 253.835C233.436 254.168 233.197 254.45 232.873 254.683C232.549 254.913 232.14 255.028 231.646 255.028C231.237 255.028 230.873 254.938 230.555 254.759C230.237 254.577 229.987 254.304 229.805 253.941C229.624 253.574 229.533 253.113 229.533 252.556L229.534 248.397L230.54 248.397L230.539 252.488C230.539 252.965 230.672 253.346 230.939 253.63C231.209 253.914 231.553 254.056 231.97 254.056C232.22 254.056 232.474 253.993 232.733 253.865C232.994 253.737 233.213 253.541 233.389 253.277C233.568 253.013 233.658 252.676 233.658 252.267ZM239.146 257.536C238.661 257.536 238.243 257.473 237.894 257.348C237.544 257.226 237.253 257.064 237.02 256.862C236.79 256.663 236.607 256.45 236.471 256.222L237.272 255.66C237.363 255.779 237.478 255.916 237.617 256.069C237.756 256.226 237.946 256.361 238.188 256.474C238.432 256.591 238.752 256.649 239.147 256.649C239.675 256.649 240.111 256.522 240.455 256.266C240.799 256.011 240.971 255.61 240.971 255.065L240.971 253.735L240.886 253.735C240.812 253.854 240.707 254.002 240.571 254.178C240.437 254.351 240.244 254.506 239.991 254.642C239.741 254.776 239.403 254.843 238.977 254.842C238.448 254.842 237.974 254.717 237.553 254.467C237.136 254.217 236.805 253.853 236.561 253.376C236.32 252.899 236.199 252.319 236.199 251.637C236.199 250.967 236.317 250.383 236.553 249.886C236.789 249.386 237.117 249 237.538 248.727C237.959 248.452 238.444 248.314 238.995 248.314C239.422 248.314 239.76 248.385 240.01 248.527C240.262 248.667 240.456 248.826 240.589 249.005C240.725 249.181 240.83 249.326 240.904 249.44L241.007 249.44L241.007 248.4L241.978 248.4L241.977 255.133C241.976 255.696 241.848 256.153 241.593 256.505C241.34 256.86 240.999 257.12 240.57 257.285C240.144 257.452 239.669 257.536 239.146 257.536ZM239.113 253.939C239.517 253.939 239.858 253.847 240.136 253.662C240.415 253.478 240.626 253.212 240.771 252.866C240.916 252.519 240.989 252.104 240.989 251.621C240.989 251.15 240.918 250.734 240.776 250.373C240.634 250.012 240.424 249.729 240.146 249.525C239.867 249.32 239.524 249.218 239.115 249.217C238.688 249.217 238.333 249.325 238.049 249.541C237.768 249.757 237.556 250.047 237.414 250.41C237.275 250.774 237.205 251.177 237.205 251.62C237.205 252.075 237.276 252.477 237.418 252.826C237.562 253.173 237.775 253.446 238.057 253.645C238.341 253.841 238.693 253.939 239.113 253.939Z" fill="#808D9E"/>
<path fill-rule="evenodd" clip-rule="evenodd" d="M230.485 237.942L230.535 54.9424L231.755 54.9427L231.705 237.943L230.485 237.942Z" fill="#E9ECF2"/>
</g>
<g clip-path="url(#clip4_1_2881)">
<path d="M175.473 246.199L176.529 246.2L176.528 252.438C176.528 252.995 176.425 253.468 176.22 253.857C176.016 254.246 175.727 254.542 175.355 254.743C174.983 254.945 174.544 255.046 174.038 255.046C173.561 255.045 173.136 254.959 172.764 254.785C172.392 254.609 172.1 254.359 171.887 254.035C171.674 253.711 171.567 253.326 171.567 252.88L172.607 252.88C172.607 253.128 172.668 253.343 172.79 253.528C172.915 253.71 173.086 253.852 173.301 253.954C173.517 254.057 173.763 254.108 174.039 254.108C174.343 254.108 174.601 254.044 174.814 253.916C175.027 253.789 175.189 253.601 175.3 253.354C175.414 253.104 175.471 252.799 175.471 252.438L175.473 246.199ZM182.634 252.252L182.635 248.383L183.641 248.383L183.639 254.929L182.634 254.929L182.634 253.821L182.566 253.821C182.412 254.153 182.173 254.436 181.85 254.668C181.526 254.898 181.116 255.013 180.622 255.013C180.213 255.013 179.849 254.924 179.531 254.744C179.213 254.563 178.963 254.29 178.782 253.926C178.6 253.56 178.509 253.098 178.509 252.541L178.51 248.382L179.516 248.382L179.515 252.473C179.515 252.95 179.648 253.331 179.915 253.615C180.185 253.899 180.529 254.042 180.946 254.042C181.196 254.042 181.451 253.978 181.709 253.85C181.971 253.722 182.189 253.526 182.366 253.262C182.545 252.998 182.634 252.662 182.634 252.252ZM186.489 246.202L186.487 254.93L185.481 254.929L185.484 246.202L186.489 246.202Z" fill="#808D9E"/>
<path fill-rule="evenodd" clip-rule="evenodd" d="M178.026 237.927L178.076 54.9272L180.516 54.9279L180.466 237.928L178.026 237.927Z" fill="#E9ECF2"/>
<path opacity="0.1" fill-rule="evenodd" clip-rule="evenodd" d="M156.065 237.921L156.115 54.9214L204.915 54.9349L204.865 237.935L156.065 237.921Z" fill="url(#paint0_linear_1_2881)"/>
</g>
<g clip-path="url(#clip5_1_2881)">
<path d="M122.756 246.185L123.812 246.186L123.811 252.424C123.811 252.981 123.708 253.454 123.503 253.843C123.299 254.232 123.01 254.528 122.638 254.729C122.266 254.931 121.827 255.032 121.321 255.032C120.844 255.031 120.419 254.945 120.047 254.771C119.675 254.595 119.383 254.345 119.17 254.021C118.957 253.697 118.85 253.312 118.85 252.866L119.89 252.866C119.89 253.113 119.951 253.329 120.073 253.514C120.198 253.696 120.369 253.838 120.584 253.94C120.8 254.043 121.046 254.094 121.322 254.094C121.626 254.094 121.884 254.03 122.097 253.902C122.31 253.775 122.472 253.587 122.583 253.34C122.697 253.09 122.754 252.785 122.754 252.424L122.756 246.185ZM129.917 252.238L129.918 248.369L130.924 248.369L130.922 254.915L129.917 254.915L129.917 253.807L129.849 253.807C129.695 254.139 129.456 254.422 129.132 254.654C128.809 254.884 128.399 254.999 127.905 254.999C127.496 254.999 127.132 254.91 126.814 254.73C126.496 254.549 126.246 254.276 126.065 253.912C125.883 253.546 125.792 253.084 125.792 252.527L125.793 248.368L126.799 248.368L126.798 252.459C126.798 252.936 126.931 253.317 127.198 253.601C127.468 253.885 127.812 254.028 128.229 254.028C128.479 254.028 128.734 253.964 128.992 253.836C129.253 253.708 129.472 253.512 129.649 253.248C129.828 252.984 129.917 252.648 129.917 252.238ZM133.771 250.978L133.77 254.916L132.764 254.915L132.766 248.37L133.738 248.37L133.737 249.393L133.823 249.393C133.976 249.061 134.209 248.794 134.522 248.592C134.834 248.388 135.238 248.285 135.732 248.285C136.175 248.286 136.563 248.377 136.895 248.559C137.228 248.738 137.486 249.01 137.671 249.377C137.855 249.741 137.947 250.201 137.947 250.758L137.946 254.917L136.94 254.916L136.941 250.826C136.942 250.311 136.808 249.911 136.541 249.624C136.274 249.334 135.908 249.189 135.442 249.189C135.121 249.189 134.834 249.258 134.581 249.397C134.331 249.537 134.133 249.74 133.989 250.007C133.844 250.274 133.771 250.597 133.771 250.978Z" fill="#808D9E"/>
<path fill-rule="evenodd" clip-rule="evenodd" d="M130.444 237.915L130.494 54.9146L131.714 54.9149L131.664 237.915L130.444 237.915Z" fill="#E9ECF2"/>
</g>
<g clip-path="url(#clip6_1_2881)">
<path d="M62.2173 246.168L63.4787 246.169L66.4426 253.414L66.5449 253.414L69.5128 246.17L70.7741 246.171L70.7717 254.898L69.7831 254.898L69.7849 248.267L69.6997 248.267L66.9706 254.897L66.016 254.897L63.2906 248.265L63.2054 248.265L63.2035 254.896L62.2149 254.896L62.2173 246.168ZM74.6804 255.052C74.2656 255.052 73.8892 254.974 73.5512 254.818C73.2132 254.659 72.9448 254.43 72.746 254.131C72.5472 253.83 72.4479 253.467 72.448 253.04C72.4481 252.665 72.5221 252.361 72.6699 252.129C72.8177 251.893 73.0152 251.708 73.2623 251.575C73.5095 251.441 73.7823 251.342 74.0806 251.277C74.3818 251.209 74.6843 251.155 74.9883 251.115C75.3861 251.064 75.7085 251.026 75.9557 251C76.2057 250.972 76.3875 250.925 76.5012 250.86C76.6177 250.794 76.6759 250.681 76.676 250.519L76.676 250.485C76.6761 250.064 76.5612 249.738 76.3311 249.505C76.1039 249.272 75.7588 249.155 75.2957 249.155C74.8156 249.155 74.4391 249.26 74.1663 249.47C73.8936 249.68 73.7017 249.904 73.5909 250.143L72.6364 249.802C72.807 249.404 73.0343 249.095 73.3185 248.873C73.6055 248.649 73.918 248.493 74.2561 248.405C74.5971 248.314 74.9323 248.268 75.2618 248.269C75.4721 248.269 75.7135 248.294 75.9863 248.345C76.2618 248.394 76.5274 248.495 76.783 248.648C77.0415 248.802 77.2559 249.033 77.4263 249.343C77.5967 249.653 77.6818 250.067 77.6817 250.587L77.6805 254.9L76.6748 254.9L76.675 254.013L76.6239 254.013C76.5557 254.155 76.442 254.307 76.2829 254.469C76.1237 254.631 75.912 254.769 75.6478 254.882C75.3836 254.996 75.0611 255.053 74.6804 255.052ZM74.8341 254.149C75.2318 254.149 75.5671 254.071 75.8398 253.915C76.1154 253.759 76.3229 253.557 76.4622 253.31C76.6043 253.063 76.6754 252.803 76.6754 252.53L76.6757 251.61C76.6331 251.661 76.5393 251.708 76.3944 251.75C76.2523 251.79 76.0876 251.826 75.9001 251.857C75.7154 251.885 75.535 251.911 75.3588 251.933C75.1855 251.953 75.0449 251.97 74.937 251.984C74.6756 252.018 74.4312 252.074 74.2039 252.15C73.9795 252.224 73.7976 252.336 73.6584 252.487C73.522 252.635 73.4538 252.836 73.4537 253.092C73.4536 253.441 73.5828 253.706 73.8413 253.885C74.1026 254.061 74.4335 254.149 74.8341 254.149ZM79.9287 257.355C79.7583 257.355 79.6063 257.341 79.4728 257.312C79.3393 257.287 79.2469 257.261 79.1958 257.235L79.4517 256.349C79.696 256.412 79.9119 256.435 80.0994 256.418C80.2869 256.401 80.4532 256.317 80.5981 256.166C80.7459 256.019 80.8809 255.779 81.0031 255.446L81.1908 254.935L78.7721 248.355L79.863 248.355L81.6684 253.571L81.7366 253.571L83.5448 248.356L84.6358 248.356L81.8553 255.856C81.7302 256.194 81.5753 256.473 81.3906 256.695C81.2058 256.919 80.9913 257.085 80.7469 257.193C80.5054 257.301 80.2327 257.355 79.9287 257.355Z" fill="#808D9E"/>
<path fill-rule="evenodd" clip-rule="evenodd" d="M74.3383 237.899L74.3889 54.8989L75.5811 54.8993L75.5306 237.899L74.3383 237.899Z" fill="#E9ECF2"/>
</g>
<g clip-path="url(#clip7_1_2881)">
<path d="M12.9532 234.363L10.1268 242.137L8.9725 242.137L12.2268 233.607L12.9709 233.607L12.9532 234.363ZM15.3182 242.139L12.4903 234.363L12.4729 233.607L13.217 233.607L16.4784 242.139L15.3182 242.139ZM15.1726 238.981L15.1723 239.906L10.3794 239.905L10.3796 238.979L15.1726 238.981ZM18.628 237.019L18.6259 244.577L17.5361 244.577L17.5385 235.8L18.5346 235.8L18.628 237.019ZM22.8989 238.918L22.8989 239.041C22.8988 239.502 22.844 239.93 22.7345 240.324C22.625 240.715 22.4648 241.055 22.2537 241.344C22.0466 241.633 21.7907 241.857 21.486 242.017C21.1812 242.178 20.8316 242.258 20.4371 242.257C20.0347 242.257 19.6793 242.191 19.3707 242.058C19.0622 241.925 18.8005 241.732 18.5857 241.478C18.371 241.224 18.1992 240.919 18.0704 240.563C17.9455 240.208 17.8596 239.807 17.8129 239.362L17.8131 238.706C17.8601 238.237 17.9481 237.817 18.0771 237.446C18.2061 237.075 18.3761 236.759 18.5871 236.497C18.802 236.232 19.0619 236.03 19.3666 235.894C19.6713 235.753 20.0229 235.683 20.4213 235.683C20.8198 235.683 21.1733 235.762 21.4818 235.918C21.7904 236.07 22.0501 236.289 22.2609 236.574C22.4718 236.86 22.6299 237.201 22.7352 237.6C22.8445 237.994 22.8991 238.434 22.8989 238.918ZM21.8091 239.041L21.8091 238.918C21.8092 238.602 21.7761 238.305 21.7097 238.027C21.6434 237.746 21.54 237.5 21.3994 237.289C21.2627 237.074 21.087 236.906 20.8722 236.785C20.6574 236.66 20.4015 236.597 20.1047 236.597C19.8312 236.597 19.5929 236.644 19.3898 236.738C19.1905 236.831 19.0206 236.958 18.8799 237.118C18.7392 237.275 18.624 237.454 18.5341 237.657C18.4481 237.856 18.3836 238.063 18.3405 238.278L18.3401 239.796C18.4182 240.069 18.5275 240.327 18.668 240.569C18.8086 240.808 18.996 241.001 19.2304 241.15C19.4647 241.294 19.7596 241.367 20.1151 241.367C20.408 241.367 20.66 241.306 20.871 241.185C21.0859 241.06 21.2617 240.89 21.3985 240.676C21.5391 240.461 21.6427 240.215 21.7092 239.937C21.7757 239.656 21.809 239.357 21.8091 239.041ZM25.452 236.798L25.4506 242.142L24.3666 242.141L24.3683 235.801L25.423 235.802L25.452 236.798ZM27.4328 235.767L27.4267 236.775C27.3368 236.755 27.2509 236.744 27.1689 236.74C27.0907 236.732 27.0009 236.728 26.8993 236.728C26.6493 236.728 26.4286 236.767 26.2372 236.845C26.0458 236.923 25.8836 237.032 25.7508 237.173C25.6179 237.314 25.5124 237.481 25.4342 237.677C25.36 237.868 25.3111 238.079 25.2876 238.31L24.9828 238.485C24.9829 238.102 25.0201 237.743 25.0945 237.407C25.1727 237.071 25.2919 236.774 25.4521 236.517C25.6123 236.255 25.8155 236.052 26.0617 235.907C26.3117 235.759 26.6086 235.685 26.9524 235.685C27.0305 235.685 27.1203 235.695 27.2219 235.714C27.3234 235.73 27.3937 235.748 27.4328 235.767Z" fill="#92929D"/>
<path fill-rule="evenodd" clip-rule="evenodd" d="M19.4399 237.884L19.4904 54.8838L20.6827 54.8841L20.6322 237.884L19.4399 237.884Z" fill="#F1F1F5"/>
</g>
<g filter="url(#filter0_d_1_2881)">
<path d="M188.063 62.9302C188.065 56.3028 193.439 50.9317 200.066 50.9335L248.066 50.9467C254.694 50.9486 260.065 56.3226 260.063 62.9501L260.059 76.9501C260.057 83.5775 254.683 88.9486 248.056 88.9467L188.056 88.9302L188.063 62.9302Z" fill="white"/>
</g>
<path d="M222.584 75.0789C221.844 75.0787 221.188 74.9543 220.615 74.7055C220.045 74.4568 219.598 74.1169 219.273 73.686C218.952 73.2517 218.793 72.7595 218.796 72.2093C218.793 71.7817 218.886 71.389 219.075 71.0311C219.264 70.6732 219.519 70.375 219.841 70.1364C220.166 69.8945 220.527 69.7405 220.925 69.6744L220.925 69.6047C220.401 69.4886 219.977 69.2217 219.652 68.804C219.331 68.383 219.172 67.8974 219.175 67.3472C219.172 66.8235 219.318 66.3562 219.613 65.9453C219.908 65.5344 220.313 65.2114 220.826 64.9762C221.34 64.7377 221.927 64.6185 222.586 64.6187C223.239 64.6189 223.821 64.7384 224.331 64.9771C224.845 65.2126 225.249 65.5359 225.544 65.9469C225.842 66.358 225.991 66.8254 225.991 67.349C225.991 67.8992 225.827 68.3847 225.499 68.8056C225.174 69.2231 224.754 69.4898 224.241 69.6057L224.241 69.6753C224.638 69.7417 224.996 69.8959 225.314 70.1379C225.636 70.3766 225.891 70.675 226.08 71.033C226.272 71.391 226.368 71.7838 226.368 72.2114C226.368 72.7616 226.205 73.2537 225.88 73.6878C225.555 74.1186 225.108 74.4582 224.538 74.7066C223.971 74.955 223.319 75.0791 222.584 75.0789ZM222.584 73.6571C222.965 73.6572 223.297 73.5926 223.578 73.4634C223.86 73.3309 224.079 73.1454 224.235 72.9068C224.391 72.6682 224.47 72.3931 224.474 72.0816C224.47 71.7568 224.386 71.4701 224.22 71.2214C224.058 70.9695 223.834 70.7722 223.549 70.6296C223.268 70.487 222.946 70.4157 222.585 70.4156C222.22 70.4155 221.895 70.4866 221.61 70.6291C221.325 70.7715 221.1 70.9687 220.934 71.2205C220.772 71.4691 220.692 71.7557 220.695 72.0805C220.692 72.3921 220.768 72.6672 220.924 72.9059C221.079 73.1413 221.298 73.3253 221.58 73.4579C221.865 73.5906 222.2 73.6569 222.584 73.6571ZM222.585 69.0186C222.897 69.0186 223.172 68.9557 223.411 68.8299C223.653 68.704 223.843 68.5284 223.982 68.303C224.122 68.0777 224.193 67.8175 224.196 67.5226C224.193 67.2309 224.124 66.9757 223.988 66.7569C223.852 66.5348 223.663 66.364 223.421 66.2446C223.179 66.1219 222.901 66.0606 222.586 66.0605C222.265 66.0604 221.981 66.1216 221.736 66.2442C221.494 66.3634 221.305 66.5341 221.169 66.7561C221.036 66.9748 220.972 67.23 220.975 67.5217C220.971 67.8166 221.038 68.0768 221.174 68.3023C221.313 68.5244 221.503 68.7001 221.745 68.8294C221.99 68.9554 222.27 69.0185 222.585 69.0186ZM228.001 74.9412L228.002 73.6088L231.538 70.1446C231.876 69.8033 232.158 69.5001 232.383 69.235C232.608 68.97 232.778 68.7131 232.89 68.4646C233.003 68.216 233.059 67.9509 233.06 67.6692C233.06 67.3477 232.987 67.0726 232.841 66.8438C232.695 66.6118 232.495 66.4328 232.24 66.3067C231.984 66.1807 231.694 66.1177 231.37 66.1176C231.035 66.1175 230.742 66.187 230.49 66.3261C230.238 66.462 230.042 66.6558 229.903 66.9077C229.767 67.1595 229.699 67.4594 229.699 67.8075L227.944 67.807C227.944 67.1607 228.092 66.5989 228.387 66.1217C228.682 65.6445 229.088 65.2751 229.605 65.0134C230.125 64.7517 230.722 64.6209 231.395 64.6211C232.078 64.6213 232.678 64.7491 233.195 65.0044C233.711 65.2598 234.112 65.6096 234.397 66.0538C234.686 66.498 234.83 67.0051 234.829 67.5752C234.829 67.9564 234.756 68.3309 234.61 68.6987C234.464 69.0666 234.207 69.4742 233.839 69.9215C233.475 70.3689 232.963 70.9106 232.303 71.5468L230.547 73.3311L230.547 73.4007L234.982 73.402L234.982 74.9431L228.001 74.9412ZM240.46 75.1386C239.642 75.1383 238.939 74.931 238.352 74.5165C237.769 74.0987 237.32 73.4971 237.006 72.7115C236.694 71.9225 236.539 70.9729 236.539 69.8626C236.543 68.7523 236.7 67.8077 237.012 67.0289C237.327 66.2468 237.776 65.6504 238.36 65.2395C238.947 64.8287 239.648 64.6234 240.463 64.6236C241.278 64.6239 241.979 64.8295 242.566 65.2407C243.152 65.6518 243.601 66.2486 243.913 67.0308C244.227 67.8131 244.385 68.7578 244.384 69.8648C244.384 70.9784 244.226 71.9296 243.911 72.7183C243.599 73.5038 243.15 74.1035 242.563 74.5177C241.98 74.9318 241.279 75.1388 240.46 75.1386ZM240.461 73.5824C241.097 73.5826 241.599 73.2695 241.967 72.6432C242.339 72.0136 242.525 71.0873 242.525 69.8643C242.525 69.0556 242.441 68.3761 242.272 67.8258C242.103 67.2756 241.864 66.8612 241.556 66.5827C241.248 66.3009 240.884 66.16 240.463 66.1599C239.83 66.1597 239.329 66.4744 238.961 67.104C238.593 67.7304 238.407 68.6501 238.403 69.8631C238.4 70.6752 238.481 71.3579 238.646 71.9115C238.815 72.465 239.054 72.8827 239.362 73.1645C239.67 73.443 240.036 73.5823 240.461 73.5824Z" fill="#1D1E25"/>
<rect x="199.062" y="65.0757" width="10" height="10" rx="2" transform="rotate(0.0158183 199.062 65.0757)" fill="#2280FF"/>
<path d="M-8.96185 148.763C-4.46356 150.61 6.17147 155.759 12.7253 161.577C20.9175 168.849 47.4261 176.818 63.3373 159.514C79.2486 142.21 86.4805 135.981 98.0489 135.984C109.617 135.987 117.33 133.566 130.349 115.569C143.369 97.5723 147.616 88.8768 163.616 88.9238C179.084 88.9691 186.91 99.6613 190.604 105.547L199.277 119.05C202.81 124.705 212.311 134.284 226.226 135.307C240.14 136.331 250.839 131.158 261.937 122.529C272.274 114.492 290.381 105.921 305.801 122.541C318.137 135.837 324.434 140.547 326.04 141.24" stroke="#2280FF" stroke-width="3" stroke-linecap="round"/>
<path d="M-32.9632 155.49C-27.753 156.837 -15.4348 160.589 -7.84349 164.827C1.6457 170.124 32.3491 175.932 50.7756 163.33C69.2021 150.728 77.5775 146.191 90.976 146.195C104.375 146.199 113.307 144.436 128.384 131.329C143.461 118.222 148.379 111.888 166.911 111.924C184.826 111.959 193.892 119.748 198.171 124.036L208.217 133.872C212.31 137.992 223.316 144.97 239.431 145.717C255.547 146.465 267.938 142.698 280.792 136.414C292.762 130.561 313.733 124.32 331.595 136.428C345.884 146.114 353.178 149.545 355.038 150.05" stroke="#FF5555" stroke-width="3" stroke-linecap="round"/>
</g>
<rect x="-0.0449219" y="50.8784" width="59.78" height="203" transform="rotate(0.0158183 -0.0449219 50.8784)" fill="white"/>
<g clip-path="url(#clip8_1_2881)">
<path d="M15.5126 60.1552L15.5101 68.8824L14.4533 68.8822L14.4554 61.2628L14.4043 61.2628L12.2732 62.677L12.2735 61.6031L14.4557 60.1549L15.5126 60.1552ZM19.061 66.4971L19.0443 65.2527L19.2488 65.2528L22.1133 62.3388L23.3576 62.3392L20.3056 65.4235L20.2204 65.4235L19.061 66.4971ZM18.1228 68.8832L18.1253 60.1559L19.1309 60.1562L19.1285 68.8834L18.1228 68.8832ZM22.2819 68.8843L19.726 65.645L20.4421 64.9463L23.5603 68.8847L22.2819 68.8843Z" fill="#808D9E"/>
</g>
<g clip-path="url(#clip9_1_2881)">
<path d="M22.562 239.004C21.9199 239.003 21.3731 238.829 20.9215 238.479C20.4699 238.127 20.1248 237.617 19.8864 236.949C19.6479 236.278 19.5288 235.469 19.5291 234.52C19.5294 233.577 19.6489 232.771 19.8877 232.104C20.1294 231.433 20.4761 230.922 20.9279 230.57C21.3826 230.215 21.9281 230.038 22.5644 230.038C23.2008 230.038 23.7448 230.216 24.1964 230.571C24.6508 230.923 24.9973 231.435 25.2357 232.105C25.477 232.773 25.5975 233.578 25.5973 234.522C25.597 235.47 25.4775 236.28 25.2387 236.95C24.9998 237.618 24.6545 238.128 24.2027 238.48C23.7509 238.829 23.204 239.004 22.562 239.004ZM22.5622 238.066C23.1986 238.066 23.693 237.76 24.0454 237.146C24.3979 236.533 24.5742 235.658 24.5746 234.521C24.5748 233.766 24.494 233.122 24.3322 232.591C24.1732 232.059 23.9432 231.655 23.6422 231.376C23.344 231.098 22.9846 230.958 22.5642 230.958C21.9335 230.958 21.4405 231.269 21.0852 231.891C20.7299 232.51 20.5521 233.387 20.5518 234.52C20.5516 235.276 20.631 235.918 20.7899 236.446C20.9489 236.975 21.1775 237.377 21.4757 237.653C21.7767 237.928 22.1389 238.066 22.5622 238.066Z" fill="#808D9E"/>
</g>
<g clip-path="url(#clip10_1_2881)">
<path d="M2.64509 204.879L2.6453 204.112L5.52685 200.959C5.86502 200.59 6.14352 200.269 6.36234 199.997C6.58117 199.721 6.74317 199.463 6.84835 199.221C6.95637 198.977 7.01042 198.721 7.0105 198.454C7.01058 198.147 6.93679 197.882 6.78913 197.657C6.6443 197.433 6.44548 197.259 6.19268 197.137C5.93987 197.015 5.6558 196.954 5.34046 196.954C5.00523 196.954 4.7126 197.023 4.46256 197.162C4.21536 197.299 4.02355 197.49 3.88711 197.737C3.75352 197.985 3.68668 198.274 3.68659 198.607L2.68091 198.606C2.68105 198.095 2.79907 197.646 3.03497 197.26C3.27088 196.874 3.59198 196.573 3.99829 196.357C4.40744 196.141 4.86628 196.033 5.3748 196.033C5.88616 196.033 6.33926 196.142 6.73409 196.358C7.12891 196.574 7.43849 196.865 7.66282 197.231C7.88715 197.598 7.99926 198.006 7.99913 198.454C7.99904 198.776 7.94072 199.089 7.82416 199.396C7.71044 199.7 7.51148 200.04 7.22728 200.415C6.94593 200.787 6.55518 201.241 6.05503 201.778L4.09423 203.874L4.09421 203.942L8.15103 203.943L8.15077 204.881L2.64509 204.879ZM12.843 205.001C12.2009 205.001 11.6541 204.826 11.2025 204.477C10.7509 204.124 10.4059 203.614 10.1674 202.947C9.92896 202.276 9.80987 201.466 9.81013 200.517C9.81039 199.574 9.92993 198.769 10.1688 198.101C10.4104 197.431 10.7571 196.92 11.2089 196.568C11.6636 196.213 12.2091 196.035 12.8455 196.035C13.4818 196.036 14.0258 196.213 14.4774 196.569C14.9319 196.921 15.2783 197.432 15.5168 198.103C15.7581 198.771 15.8786 199.576 15.8783 200.519C15.878 201.468 15.7585 202.278 15.5197 202.948C15.2809 203.616 14.9356 204.125 14.4838 204.478C14.032 204.827 13.485 205.001 12.843 205.001ZM12.8432 204.064C13.4796 204.064 13.974 203.757 14.3264 203.144C14.6789 202.53 14.8553 201.655 14.8556 200.519C14.8558 199.763 14.775 199.12 14.6132 198.588C14.4543 198.057 14.2243 197.652 13.9232 197.374C13.625 197.095 13.2657 196.956 12.8452 196.956C12.2145 196.956 11.7215 197.267 11.3663 197.889C11.011 198.508 10.8332 199.384 10.8329 200.518C10.8326 201.273 10.912 201.916 11.071 202.444C11.2299 202.972 11.4585 203.374 11.7567 203.65C12.0578 203.926 12.4199 204.064 12.8432 204.064ZM20.4287 205.003C19.7867 205.003 19.2398 204.828 18.7882 204.479C18.3366 204.126 17.9916 203.616 17.7531 202.949C17.5147 202.278 17.3956 201.468 17.3958 200.52C17.3961 199.576 17.5156 198.771 17.7545 198.103C17.9961 197.433 18.3429 196.922 18.7947 196.57C19.2493 196.215 19.7948 196.037 20.4312 196.037C21.0675 196.038 21.6115 196.215 22.0631 196.571C22.5176 196.923 22.864 197.434 23.1025 198.105C23.3438 198.773 23.4643 199.578 23.464 200.521C23.4638 201.47 23.3442 202.28 23.1054 202.95C22.8666 203.618 22.5213 204.128 22.0695 204.48C21.6177 204.829 21.0707 205.004 20.4287 205.003ZM20.429 204.066C21.0653 204.066 21.5597 203.759 21.9122 203.146C22.2646 202.532 22.441 201.657 22.4413 200.521C22.4415 199.765 22.3607 199.122 22.1989 198.591C22.04 198.059 21.81 197.654 21.5089 197.376C21.2107 197.097 20.8514 196.958 20.4309 196.958C19.8002 196.958 19.3073 197.269 18.952 197.891C18.5967 198.51 18.4189 199.386 18.4186 200.52C18.4184 201.276 18.4977 201.918 18.6567 202.446C18.8156 202.975 19.0442 203.377 19.3424 203.652C19.6435 203.928 20.0057 204.066 20.429 204.066Z" fill="#808D9E"/>
</g>
<g clip-path="url(#clip11_1_2881)">
<path d="M2.4508 169.089L2.45104 168.22L6.28794 162.153L6.91862 162.153L6.91825 163.5L6.49212 163.5L3.59312 168.084L3.5931 168.152L8.75788 168.154L8.75762 169.091L2.4508 169.089ZM6.55826 170.88L6.55883 168.826L6.55894 168.421L6.56067 162.153L7.56635 162.153L7.56394 170.881L6.55826 170.88ZM13.2863 171.001C12.6443 171.001 12.0975 170.826 11.6459 170.477C11.1943 170.124 10.8492 169.614 10.6108 168.947C10.3723 168.276 10.2532 167.466 10.2535 166.518C10.2537 165.574 10.3733 164.769 10.6121 164.102C10.8538 163.431 11.2005 162.92 11.6523 162.568C12.1069 162.213 12.6525 162.035 13.2888 162.035C13.9252 162.036 14.4692 162.213 14.9208 162.569C15.3752 162.921 15.7217 163.432 15.9601 164.103C16.2014 164.771 16.3219 165.576 16.3217 166.519C16.3214 167.468 16.2019 168.278 15.963 168.948C15.7242 169.616 15.3789 170.126 14.9271 170.478C14.4753 170.827 13.9284 171.002 13.2863 171.001ZM13.2866 170.064C13.923 170.064 14.4174 169.757 14.7698 169.144C15.1223 168.53 15.2986 167.655 15.2989 166.519C15.2992 165.763 15.2184 165.12 15.0566 164.589C14.8976 164.057 14.6676 163.652 14.3666 163.374C14.0684 163.095 13.709 162.956 13.2886 162.956C12.6579 162.956 12.1649 163.267 11.8096 163.889C11.4543 164.508 11.2765 165.384 11.2762 166.518C11.276 167.274 11.3554 167.916 11.5143 168.444C11.6733 168.973 11.9018 169.375 12.2001 169.65C12.5011 169.926 12.8633 170.064 13.2866 170.064ZM20.8721 171.004C20.23 171.003 19.6832 170.828 19.2316 170.479C18.78 170.127 18.4349 169.616 18.1965 168.949C17.958 168.278 17.8389 167.469 17.8392 166.52C17.8395 165.577 17.959 164.771 18.1978 164.104C18.4395 163.433 18.7862 162.922 19.238 162.57C19.6927 162.215 20.2382 162.037 20.8745 162.038C21.5109 162.038 22.0549 162.215 22.5065 162.571C22.9609 162.923 23.3074 163.435 23.5458 164.105C23.7871 164.773 23.9076 165.578 23.9074 166.521C23.9071 167.47 23.7876 168.28 23.5488 168.95C23.3099 169.618 22.9646 170.128 22.5128 170.48C22.061 170.829 21.5141 171.004 20.8721 171.004ZM20.8723 170.066C21.5087 170.066 22.0031 169.759 22.3555 169.146C22.708 168.532 22.8843 167.657 22.8847 166.521C22.8849 165.765 22.8041 165.122 22.6423 164.591C22.4833 164.059 22.2533 163.654 21.9523 163.376C21.6541 163.097 21.2947 162.958 20.8743 162.958C20.2436 162.958 19.7506 163.269 19.3953 163.891C19.04 164.51 18.8622 165.386 18.8619 166.52C18.8617 167.276 18.9411 167.918 19.1 168.446C19.259 168.975 19.4876 169.377 19.7858 169.652C20.0868 169.928 20.449 170.066 20.8723 170.066Z" fill="#808D9E"/>
</g>
<g clip-path="url(#clip12_1_2881)">
<path d="M5.56231 136.999C5.20436 136.993 4.84642 136.925 4.4885 136.794C4.13059 136.664 3.80394 136.443 3.50857 136.134C3.2132 135.821 2.9761 135.399 2.79727 134.868C2.61844 134.334 2.52914 133.663 2.52936 132.856C2.52958 132.084 2.60221 131.399 2.74726 130.802C2.89231 130.203 3.10268 129.699 3.37836 129.29C3.65404 128.878 3.98651 128.566 4.37578 128.353C4.76788 128.14 5.20967 128.033 5.70115 128.033C6.18979 128.034 6.62442 128.132 7.00505 128.328C7.38852 128.521 7.70094 128.791 7.94232 129.138C8.1837 129.484 8.33984 129.884 8.41074 130.335L7.37097 130.335C7.27449 129.943 7.08708 129.618 6.80874 129.359C6.5304 129.1 6.16112 128.971 5.70089 128.971C5.02475 128.971 4.492 129.265 4.10264 129.853C3.71611 130.441 3.52128 131.266 3.51815 132.328L3.58633 132.328C3.74549 132.087 3.93446 131.881 4.15326 131.711C4.3749 131.537 4.61925 131.404 4.88632 131.31C5.1534 131.216 5.43608 131.17 5.73437 131.17C6.23437 131.17 6.69173 131.295 7.10643 131.545C7.52113 131.792 7.85343 132.135 8.10331 132.572C8.35319 133.007 8.47805 133.506 8.47789 134.068C8.47774 134.608 8.35687 135.102 8.11527 135.551C7.87367 135.997 7.53408 136.352 7.09651 136.616C6.66178 136.877 6.15038 137.005 5.56231 136.999ZM5.56257 136.062C5.92052 136.062 6.24157 135.972 6.52571 135.794C6.81269 135.615 7.03861 135.375 7.20347 135.074C7.37116 134.772 7.45506 134.437 7.45517 134.068C7.45527 133.707 7.37439 133.379 7.21254 133.084C7.05353 132.785 6.83343 132.548 6.55223 132.372C6.27386 132.195 5.95571 132.107 5.59775 132.107C5.32787 132.107 5.07643 132.161 4.84345 132.269C4.61046 132.374 4.40588 132.519 4.22969 132.703C4.05634 132.888 3.91992 133.1 3.82042 133.338C3.72093 133.574 3.67114 133.823 3.67107 134.084C3.67097 134.431 3.75185 134.754 3.9137 135.056C4.07839 135.357 4.30275 135.6 4.58679 135.785C4.87367 135.969 5.19893 136.062 5.56257 136.062ZM13.0852 137.001C12.4431 137.001 11.8963 136.826 11.4447 136.477C10.9931 136.124 10.6481 135.614 10.4096 134.947C10.1711 134.276 10.0521 133.466 10.0523 132.518C10.0526 131.574 10.1721 130.769 10.4109 130.101C10.6526 129.431 10.9993 128.92 11.4511 128.568C11.9058 128.213 12.4513 128.035 13.0876 128.035C13.724 128.036 14.268 128.213 14.7196 128.569C15.174 128.921 15.5205 129.432 15.7589 130.103C16.0002 130.771 16.1208 131.576 16.1205 132.519C16.1202 133.468 16.0007 134.278 15.7619 134.948C15.5231 135.616 15.1777 136.126 14.7259 136.478C14.2741 136.827 13.7272 137.002 13.0852 137.001ZM13.0854 136.064C13.7218 136.064 14.2162 135.757 14.5686 135.144C14.9211 134.53 15.0975 133.655 15.0978 132.519C15.098 131.763 15.0172 131.12 14.8554 130.588C14.6965 130.057 14.4665 129.652 14.1654 129.374C13.8672 129.095 13.5078 128.956 13.0874 128.956C12.4567 128.956 11.9637 129.267 11.6084 129.889C11.2532 130.508 11.0754 131.384 11.075 132.518C11.0748 133.274 11.1542 133.916 11.3131 134.444C11.4721 134.972 11.7007 135.375 11.9989 135.65C12.3 135.926 12.6621 136.064 13.0854 136.064ZM20.6709 137.003C20.0288 137.003 19.482 136.828 19.0304 136.479C18.5788 136.126 18.2338 135.616 17.9953 134.949C17.7569 134.278 17.6378 133.469 17.638 132.52C17.6383 131.576 17.7578 130.771 17.9967 130.104C18.2383 129.433 18.585 128.922 19.0368 128.57C19.4915 128.215 20.037 128.037 20.6734 128.038C21.3097 128.038 21.8537 128.215 22.3053 128.571C22.7598 128.923 23.1062 129.435 23.3447 130.105C23.586 130.773 23.7065 131.578 23.7062 132.521C23.706 133.47 23.5864 134.28 23.3476 134.95C23.1088 135.618 22.7635 136.128 22.3117 136.48C21.8599 136.829 21.3129 137.004 20.6709 137.003ZM20.6711 136.066C21.3075 136.066 21.8019 135.759 22.1544 135.146C22.5068 134.532 22.6832 133.657 22.6835 132.521C22.6837 131.765 22.6029 131.122 22.4411 130.591C22.2822 130.059 22.0522 129.654 21.7511 129.376C21.4529 129.097 21.0936 128.958 20.6731 128.958C20.0424 128.958 19.5494 129.269 19.1942 129.891C18.8389 130.51 18.6611 131.386 18.6608 132.52C18.6605 133.276 18.7399 133.918 18.8989 134.446C19.0578 134.975 19.2864 135.377 19.5846 135.652C19.8857 135.928 20.2478 136.066 20.6711 136.066Z" fill="#808D9E"/>
</g>
<g clip-path="url(#clip13_1_2881)">
<path d="M5.46785 102.999C4.88262 102.999 4.36561 102.895 3.9168 102.688C3.47084 102.477 3.1229 102.189 2.87301 101.822C2.62311 101.453 2.49964 101.033 2.50261 100.561C2.49988 100.192 2.57241 99.8507 2.72023 99.5383C2.86804 99.223 3.06982 98.9602 3.32556 98.7501C3.58414 98.5371 3.87253 98.4022 4.19073 98.3455L4.19074 98.2943C3.77316 98.1863 3.44084 97.9518 3.19378 97.5909C2.94672 97.2272 2.82467 96.8139 2.82764 96.3508C2.82492 95.9076 2.93725 95.5113 3.16462 95.162C3.39199 94.8126 3.70456 94.5371 4.10234 94.3355C4.50297 94.1339 4.95896 94.0332 5.47033 94.0333C5.97601 94.0335 6.42768 94.1345 6.82536 94.3363C7.22303 94.5381 7.53545 94.8137 7.76263 95.1632C7.99265 95.5127 8.10901 95.9091 8.11173 96.3522C8.10876 96.8153 7.98223 97.2286 7.73213 97.5922C7.48487 97.9529 7.15668 98.1872 6.74756 98.2951L6.74754 98.3462C7.06287 98.4031 7.34692 98.5381 7.59971 98.7513C7.85249 98.9616 8.05412 99.2244 8.2046 99.5398C8.35508 99.8523 8.43169 100.193 8.43443 100.563C8.43146 101.034 8.3035 101.455 8.05056 101.824C7.80046 102.19 7.45237 102.478 7.00629 102.689C6.56305 102.896 6.05024 102.999 5.46785 102.999ZM5.46811 102.062C5.863 102.062 6.20392 101.998 6.49089 101.87C6.77786 101.743 6.9995 101.562 7.15581 101.329C7.31213 101.096 7.39175 100.824 7.39467 100.511C7.39192 100.182 7.30678 99.8904 7.13923 99.6375C6.97169 99.3846 6.74305 99.1857 6.45332 99.0407C6.16643 98.8957 5.83832 98.8232 5.469 98.8231C5.09684 98.823 4.76444 98.8954 4.47178 99.0402C4.18197 99.185 3.95322 99.3838 3.78554 99.6366C3.6207 99.8894 3.53965 100.181 3.5424 100.51C3.53947 100.823 3.61468 101.095 3.76803 101.328C3.92421 101.561 4.14718 101.742 4.43691 101.87C4.72665 101.998 5.07038 102.062 5.46811 102.062ZM5.46925 97.9197C5.78175 97.9198 6.05876 97.8574 6.30027 97.7324C6.54462 97.6075 6.73643 97.4328 6.8757 97.2084C7.01497 96.984 7.08606 96.7213 7.08899 96.4201C7.08623 96.1247 7.01669 95.8676 6.88039 95.6488C6.74409 95.4272 6.55522 95.2566 6.31377 95.1373C6.07233 95.015 5.79109 94.9539 5.47007 94.9538C5.14337 94.9537 4.85784 95.0147 4.61349 95.1368C4.36914 95.256 4.18017 95.4264 4.04658 95.648C3.913 95.8667 3.84759 96.1238 3.85035 96.4193C3.84743 96.7204 3.91411 96.9832 4.05042 97.2077C4.18956 97.4321 4.38127 97.6069 4.62555 97.732C4.86984 97.857 5.15107 97.9196 5.46925 97.9197ZM12.9992 103.001C12.3572 103.001 11.8104 102.826 11.3588 102.477C10.9071 102.124 10.5621 101.614 10.3237 100.947C10.0852 100.276 9.96612 99.4664 9.96638 98.5175C9.96664 97.5744 10.0862 96.769 10.325 96.1014C10.5667 95.431 10.9134 94.9198 11.3652 94.5676C11.8198 94.2126 12.3653 94.0352 13.0017 94.0354C13.6381 94.0356 14.1821 94.2133 14.6337 94.5685C15.0881 94.9209 15.4346 95.4324 15.673 96.1029C15.9143 96.7706 16.0348 97.576 16.0346 98.5192C16.0343 99.4681 15.9148 100.278 15.6759 100.948C15.4371 101.616 15.0918 102.125 14.64 102.478C14.1882 102.827 13.6413 103.002 12.9992 103.001ZM12.9995 102.064C13.6359 102.064 14.1303 101.757 14.4827 101.144C14.8351 100.53 15.0115 99.6553 15.0118 98.5189C15.012 97.7632 14.9313 97.1198 14.7695 96.5885C14.6105 96.0572 14.3805 95.6523 14.0795 95.3738C13.7812 95.0953 13.4219 94.956 13.0015 94.9559C12.3708 94.9557 11.8778 95.2666 11.5225 95.8887C11.1672 96.5079 10.9894 97.3843 10.9891 98.5178C10.9889 99.2735 11.0683 99.9156 11.2272 100.444C11.3862 100.972 11.6147 101.375 11.913 101.65C12.214 101.926 12.5762 102.064 12.9995 102.064ZM20.5849 103.003C19.9429 103.003 19.3961 102.828 18.9445 102.479C18.4929 102.126 18.1478 101.616 17.9094 100.949C17.6709 100.278 17.5518 99.4685 17.5521 98.5196C17.5524 97.5764 17.6719 96.7711 17.9107 96.1035C18.1524 95.4331 18.4991 94.9219 18.9509 94.5697C19.4056 94.2147 19.9511 94.0373 20.5874 94.0375C21.2238 94.0377 21.7678 94.2154 22.2194 94.5706C22.6738 94.923 23.0203 95.4345 23.2587 96.105C23.5 96.7727 23.6205 97.5781 23.6203 98.5213C23.62 99.4702 23.5005 100.28 23.2616 100.95C23.0228 101.618 22.6775 102.128 22.2257 102.48C21.7739 102.829 21.227 103.004 20.5849 103.003ZM20.5852 102.066C21.2216 102.066 21.716 101.759 22.0684 101.146C22.4209 100.532 22.5972 99.6574 22.5975 98.521C22.5978 97.7653 22.517 97.1218 22.3552 96.5906C22.1962 96.0593 21.9662 95.6544 21.6652 95.3759C21.367 95.0974 21.0076 94.9581 20.5872 94.958C19.9565 94.9578 19.4635 95.2687 19.1082 95.8908C18.7529 96.51 18.5751 97.3864 18.5748 98.5199C18.5746 99.2756 18.654 99.9177 18.8129 100.446C18.9719 100.975 19.2005 101.377 19.4987 101.652C19.7997 101.928 20.1619 102.066 20.5852 102.066Z" fill="#808D9E"/>
</g>
<g filter="url(#filter1_d_1_2881)">
<rect x="172.055" y="84.9258" width="14" height="14" rx="7" transform="rotate(0.0158183 172.055 84.9258)" fill="#2280FF"/>
<rect x="173.054" y="85.9261" width="12" height="12" rx="6" transform="rotate(0.0158183 173.054 85.9261)" stroke="white" stroke-width="2"/>
</g>
<rect x="169.543" y="15.9253" width="12.2" height="10" rx="2" transform="rotate(0.0158183 169.543 15.9253)" fill="#FF5555"/>
<path d="M200.93 18.9338L199.697 18.9334C199.624 18.5788 199.496 18.2672 199.314 17.9986C199.135 17.7301 198.916 17.5047 198.658 17.3223C198.403 17.1367 198.119 16.9974 197.808 16.9045C197.496 16.8116 197.172 16.7651 196.834 16.765C196.217 16.7648 195.659 16.9205 195.158 17.2319C194.661 17.5433 194.265 18.0022 193.969 18.6087C193.678 19.2151 193.532 19.9592 193.531 20.8408C193.531 21.7224 193.677 22.4666 193.968 23.0732C194.263 23.6798 194.659 24.1389 195.156 24.4506C195.656 24.7623 196.215 24.9182 196.831 24.9184C197.169 24.9185 197.494 24.8722 197.806 24.7795C198.117 24.6868 198.401 24.5493 198.656 24.3671C198.915 24.1815 199.133 23.9546 199.312 23.6861C199.495 23.4144 199.622 23.1029 199.696 22.7516L200.928 22.7519C200.836 23.2723 200.666 23.7379 200.421 24.1488C200.176 24.5597 199.871 24.9093 199.506 25.1976C199.141 25.4825 198.732 25.6995 198.278 25.8485C197.827 25.9975 197.345 26.072 196.831 26.0718C195.963 26.0716 195.19 25.8593 194.514 25.4348C193.838 25.0104 193.307 24.407 192.919 23.6247C192.531 22.8424 192.338 21.9143 192.338 20.8405C192.338 19.7666 192.533 18.8386 192.921 18.0565C193.309 17.2745 193.841 16.6714 194.517 16.2473C195.193 15.8233 195.965 15.6114 196.834 15.6116C197.348 15.6117 197.83 15.6864 198.281 15.8357C198.735 15.985 199.144 16.2039 199.508 16.4923C199.873 16.7774 200.178 17.1255 200.423 17.5366C200.668 17.9443 200.837 18.4101 200.93 18.9338ZM205.363 26.0941C204.674 26.0939 204.069 25.9296 203.549 25.6014C203.032 25.2731 202.627 24.814 202.336 24.2239C202.048 23.6339 201.904 22.9444 201.904 22.1556C201.904 21.3602 202.049 20.6658 202.337 20.0726C202.629 19.4794 203.033 19.0189 203.55 18.6909C204.071 18.3629 204.676 18.199 205.365 18.1992C206.055 18.1994 206.658 18.3636 207.175 18.6919C207.695 19.0201 208.099 19.481 208.387 20.0743C208.679 20.6677 208.825 21.3621 208.824 22.1575C208.824 22.9464 208.678 23.6357 208.386 24.2256C208.098 24.8155 207.693 25.2744 207.173 25.6024C206.656 25.9304 206.052 26.0943 205.363 26.0941ZM205.363 25.0401C205.887 25.0402 206.318 24.9061 206.656 24.6377C206.994 24.3694 207.245 24.0165 207.407 23.579C207.57 23.1416 207.651 22.6676 207.651 22.1572C207.651 21.6468 207.57 21.1711 207.408 20.7303C207.246 20.2894 206.995 19.9331 206.657 19.6612C206.319 19.3893 205.889 19.2533 205.365 19.2532C204.841 19.253 204.41 19.3888 204.072 19.6605C203.734 19.9322 203.484 20.2884 203.321 20.7292C203.159 21.1699 203.077 21.6455 203.077 22.1559C203.077 22.6664 203.158 23.1403 203.32 23.5779C203.483 24.0154 203.733 24.3685 204.071 24.637C204.409 24.9056 204.84 25.0399 205.363 25.0401ZM210.114 25.9363L210.116 18.2999L211.25 18.3002L211.25 19.4934L211.349 19.4934C211.508 19.0858 211.765 18.7694 212.12 18.5441C212.475 18.3155 212.901 18.2013 213.398 18.2014C213.902 18.2015 214.321 18.316 214.655 18.5448C214.993 18.7703 215.257 19.0869 215.446 19.4946L215.525 19.4946C215.721 19.1002 216.014 18.7871 216.405 18.5552C216.797 18.32 217.266 18.2025 217.813 18.2026C218.495 18.2028 219.054 18.4167 219.488 18.8444C219.922 19.2688 220.139 19.9301 220.139 20.8283L220.137 25.9391L218.964 25.9387L218.965 20.8279C218.965 20.2645 218.811 19.8617 218.503 19.6197C218.195 19.3777 217.832 19.2566 217.415 19.2565C216.878 19.2563 216.462 19.4186 216.167 19.7434C215.871 20.0648 215.724 20.4724 215.724 20.9662L215.722 25.9378L214.529 25.9375L214.531 20.7074C214.531 20.2732 214.39 19.9235 214.108 19.6583C213.827 19.3897 213.464 19.2554 213.02 19.2553C212.715 19.2552 212.43 19.3363 212.164 19.4986C211.903 19.661 211.69 19.8863 211.528 20.1746C211.369 20.4596 211.289 20.7894 211.289 21.1639L211.288 25.9366L210.114 25.9363ZM221.782 28.8031L221.784 18.3031L222.918 18.3035L222.918 19.5165L223.057 19.5166C223.143 19.384 223.262 19.215 223.415 19.0096C223.571 18.8008 223.793 18.6153 224.081 18.4529C224.373 18.2873 224.767 18.2045 225.265 18.2047C225.908 18.2049 226.474 18.3658 226.965 18.6874C227.455 19.009 227.838 19.4649 228.113 20.0549C228.388 20.6449 228.525 21.341 228.525 22.1431C228.525 22.9518 228.387 23.6527 228.112 24.2459C227.836 24.8358 227.455 25.2931 226.968 25.6178C226.48 25.9392 225.919 26.0997 225.282 26.0996C224.792 26.0994 224.399 26.0181 224.104 25.8556C223.809 25.6898 223.582 25.5025 223.423 25.2937C223.264 25.0815 223.142 24.9058 223.055 24.7666L222.956 24.7665L222.955 28.8035L221.782 28.8031ZM222.937 22.1216C222.937 22.6984 223.021 23.2071 223.19 23.648C223.359 24.0855 223.606 24.4287 223.93 24.6773C224.255 24.9227 224.653 25.0454 225.123 25.0455C225.614 25.0457 226.023 24.9165 226.352 24.6581C226.683 24.3964 226.932 24.0451 227.098 23.6043C227.267 23.1602 227.351 22.6664 227.352 22.1229C227.352 21.5859 227.269 21.102 227.103 20.6711C226.941 20.2369 226.694 19.8938 226.363 19.6418C226.035 19.3865 225.622 19.2588 225.125 19.2586C224.648 19.2585 224.247 19.3793 223.922 19.6212C223.597 19.8598 223.352 20.1944 223.186 20.6253C223.02 21.0528 222.937 21.5516 222.937 22.1216ZM233.015 26.1017C232.279 26.1015 231.645 25.9389 231.111 25.614C230.581 25.2857 230.172 24.8282 229.884 24.2415C229.599 23.6514 229.456 22.9653 229.457 22.1831C229.457 21.4009 229.6 20.7116 229.885 20.115C230.173 19.5152 230.574 19.048 231.088 18.7134C231.605 18.3755 232.209 18.2066 232.898 18.2068C233.296 18.2069 233.689 18.2733 234.076 18.406C234.464 18.5387 234.817 18.7542 235.135 19.0526C235.453 19.3476 235.707 19.7388 235.895 20.2261C236.084 20.7133 236.178 21.3133 236.178 22.0259L236.178 22.523L230.292 22.5214L230.292 21.5072L234.985 21.5085C234.985 21.0776 234.899 20.6931 234.727 20.355C234.558 20.0169 234.316 19.75 234.001 19.5544C233.69 19.3588 233.322 19.2609 232.898 19.2608C232.43 19.2606 232.026 19.3765 231.685 19.6084C231.347 19.837 231.086 20.1353 230.904 20.5031C230.721 20.871 230.63 21.2653 230.63 21.6863L230.63 22.3624C230.63 22.9391 230.729 23.428 230.928 23.8291C231.13 24.2269 231.41 24.5302 231.768 24.7391C232.126 24.9447 232.542 25.0476 233.016 25.0477C233.324 25.0478 233.602 25.0048 233.851 24.9187C234.103 24.8293 234.32 24.6968 234.502 24.5211C234.685 24.3422 234.825 24.1202 234.925 23.8551L236.058 24.1736C235.939 24.558 235.738 24.896 235.457 25.1876C235.175 25.4759 234.827 25.7012 234.412 25.8635C233.998 26.0224 233.532 26.1018 233.015 26.1017ZM240.785 18.3084L240.785 19.3027L236.827 19.3016L236.828 18.3073L240.785 18.3084ZM237.982 16.4781L239.155 16.4784L239.153 23.7568C239.153 24.0882 239.201 24.3368 239.297 24.5026C239.396 24.665 239.522 24.7744 239.675 24.8308C239.83 24.8839 239.995 24.9104 240.167 24.9105C240.296 24.9105 240.402 24.9039 240.485 24.8907C240.568 24.8741 240.634 24.8609 240.684 24.851L240.922 25.905C240.843 25.9348 240.732 25.9646 240.589 25.9944C240.447 26.0275 240.266 26.044 240.047 26.044C239.716 26.0439 239.391 25.9725 239.073 25.8299C238.758 25.6873 238.496 25.4702 238.288 25.1784C238.082 24.8867 237.979 24.5188 237.98 24.0747L237.982 16.4781ZM242.048 25.9451L242.05 18.3087L243.223 18.3091L243.221 25.9454L242.048 25.9451ZM242.647 17.0362C242.418 17.0361 242.221 16.9582 242.055 16.8024C241.893 16.6465 241.812 16.4592 241.812 16.2405C241.812 16.0217 241.893 15.8345 242.056 15.6788C242.222 15.523 242.419 15.4452 242.647 15.4453C242.876 15.4453 243.072 15.5233 243.234 15.6791C243.4 15.8349 243.483 16.0222 243.482 16.241C243.482 16.4597 243.399 16.6469 243.234 16.8027C243.071 16.9584 242.876 17.0362 242.647 17.0362ZM248.193 18.3104L248.193 19.3048L244.236 19.3037L244.236 18.3093L248.193 18.3104ZM245.39 16.4801L246.563 16.4804L246.561 23.7589C246.561 24.0903 246.609 24.3389 246.705 24.5046C246.805 24.6671 246.93 24.7765 247.083 24.8329C247.239 24.8859 247.403 24.9125 247.575 24.9125C247.704 24.9126 247.81 24.906 247.893 24.8927C247.976 24.8762 248.042 24.863 248.092 24.853L248.33 25.9071C248.251 25.9369 248.14 25.9667 247.997 25.9965C247.855 26.0296 247.674 26.0461 247.455 26.046C247.124 26.0459 246.799 25.9746 246.481 25.832C246.166 25.6894 245.904 25.4722 245.696 25.1805C245.49 24.8888 245.388 24.5208 245.388 24.0767L245.39 16.4801ZM252.476 26.1071C251.787 26.1069 251.182 25.9427 250.662 25.6144C250.145 25.2861 249.741 24.827 249.449 24.2369C249.161 23.6469 249.017 22.9574 249.017 22.1686C249.017 21.3732 249.162 20.6788 249.45 20.0856C249.742 19.4924 250.147 19.0319 250.664 18.7039C251.184 18.3759 251.789 18.212 252.479 18.2122C253.168 18.2124 253.771 18.3766 254.288 18.7049C254.808 19.0331 255.213 19.494 255.501 20.0873C255.792 20.6807 255.938 21.3751 255.938 22.1705C255.937 22.9594 255.791 23.6487 255.5 24.2386C255.211 24.8285 254.807 25.2874 254.286 25.6154C253.769 25.9434 253.166 26.1073 252.476 26.1071ZM252.477 25.0531C253 25.0532 253.431 24.9191 253.769 24.6508C254.108 24.3824 254.358 24.0295 254.52 23.592C254.683 23.1546 254.764 22.6806 254.764 22.1702C254.765 21.6598 254.683 21.1842 254.521 20.7433C254.359 20.3024 254.109 19.9461 253.771 19.6742C253.433 19.4023 253.002 19.2663 252.478 19.2662C251.955 19.266 251.524 19.4018 251.186 19.6735C250.847 19.9452 250.597 20.3014 250.435 20.7422C250.272 21.1829 250.191 21.6585 250.191 22.1689C250.19 22.6794 250.271 23.1533 250.434 23.5909C250.596 24.0284 250.846 24.3815 251.184 24.65C251.522 24.9186 251.953 25.053 252.477 25.0531ZM257.228 25.9493L257.23 18.3129L258.363 18.3132L258.363 19.4667L258.443 19.4667C258.582 19.0889 258.834 18.7824 259.198 18.5471C259.563 18.3119 259.974 18.1944 260.431 18.1945C260.518 18.1945 260.625 18.1962 260.755 18.1996C260.884 18.2029 260.982 18.2079 261.048 18.2146L261.048 19.4077C261.008 19.3978 260.917 19.3828 260.774 19.3629C260.635 19.3397 260.488 19.328 260.332 19.328C259.961 19.3279 259.629 19.4057 259.337 19.5614C259.049 19.7138 258.82 19.9258 258.651 20.1976C258.485 20.466 258.402 20.7725 258.402 21.1172L258.401 25.9496L257.228 25.9493Z" fill="#1D1E25"/>
<rect x="1.18359" y="15.8784" width="12.2" height="10" rx="2" transform="rotate(0.0158183 1.18359 15.8784)" fill="#2280FF"/>
<path d="M24.3778 15.7028L25.8494 15.7032L29.3073 24.1559L29.4266 24.1559L32.8892 15.7051L34.3608 15.7056L34.358 25.8874L33.2046 25.8871L33.2067 18.1513L33.1073 18.1512L29.9233 25.8861L28.8097 25.8858L25.63 18.1492L25.5306 18.1491L25.5284 25.8849L24.375 25.8846L24.3778 15.7028ZM36.9259 28.7517C36.727 28.7517 36.5497 28.735 36.394 28.7019C36.2382 28.672 36.1305 28.6421 36.0708 28.6123L36.3694 27.5783C36.6544 27.6513 36.9063 27.6778 37.1251 27.658C37.3438 27.6382 37.5377 27.5405 37.7068 27.3649C37.8792 27.1926 38.0367 26.9125 38.1794 26.5248L38.3983 25.9283L35.5765 18.2513L36.8493 18.2517L38.9555 24.3375L39.0351 24.3375L41.1447 18.2529L42.4174 18.2532L39.1735 27.0023C39.0276 27.3967 38.8469 27.7231 38.6314 27.9816C38.4159 28.2434 38.1656 28.4372 37.8805 28.5631C37.5987 28.6889 37.2805 28.7518 36.9259 28.7517ZM46.9007 28.7545L46.9036 18.2545L48.0371 18.2548L48.0368 19.4679L48.176 19.4679C48.2622 19.3353 48.3816 19.1663 48.5341 18.9609C48.6899 18.7521 48.912 18.5666 49.2004 18.4043C49.4921 18.2386 49.8866 18.1559 50.3837 18.156C51.0267 18.1562 51.5934 18.3171 52.0839 18.6387C52.5743 18.9603 52.957 19.4162 53.2319 20.0062C53.5069 20.5963 53.6442 21.2923 53.644 22.0944C53.6438 22.9031 53.506 23.6041 53.2308 24.1973C52.9555 24.7872 52.5742 25.2444 52.0869 25.5691C51.5996 25.8905 51.0378 26.0511 50.4014 26.0509C49.9109 26.0508 49.5182 25.9694 49.2232 25.807C48.9283 25.6412 48.7013 25.4538 48.5423 25.245C48.3832 25.0328 48.2607 24.8571 48.1745 24.7179L48.0751 24.7179L48.074 28.7548L46.9007 28.7545ZM48.0559 22.073C48.0558 22.6497 48.1402 23.1585 48.3091 23.5993C48.478 24.0369 48.7248 24.38 49.0496 24.6286C49.3743 24.874 49.772 24.9967 50.2426 24.9969C50.7332 24.997 51.1425 24.8679 51.4707 24.6094C51.8022 24.3477 52.0509 23.9964 52.2168 23.5557C52.3859 23.1116 52.4706 22.6178 52.4707 22.0742C52.4709 21.5373 52.3881 21.0533 52.2225 20.6224C52.0602 20.1882 51.8134 19.8451 51.4821 19.5931C51.154 19.3378 50.7414 19.2101 50.2442 19.2099C49.767 19.2098 49.3659 19.3307 49.041 19.5725C48.7161 19.8111 48.4708 20.1458 48.3049 20.5766C48.1391 21.0041 48.0561 21.5029 48.0559 22.073ZM54.9327 25.8931L54.9348 18.2567L56.0684 18.257L56.068 19.4104L56.1476 19.4104C56.2869 19.0326 56.5389 18.7261 56.9035 18.4909C57.2682 18.2557 57.6792 18.1381 58.1366 18.1383C58.2227 18.1383 58.3305 18.14 58.4597 18.1433C58.589 18.1467 58.6868 18.1517 58.753 18.1583L58.7527 19.3515C58.7129 19.3415 58.6218 19.3266 58.4793 19.3067C58.3401 19.2834 58.1926 19.2718 58.0368 19.2718C57.6656 19.2716 57.3342 19.3494 57.0424 19.5051C56.754 19.6575 56.5253 19.8696 56.3562 20.1413C56.1904 20.4097 56.1075 20.7163 56.1074 21.061L56.106 25.8934L54.9327 25.8931ZM62.5115 26.0542C61.8221 26.054 61.2173 25.8898 60.697 25.5615C60.1801 25.2333 59.7758 24.7741 59.4843 24.1841C59.1961 23.594 59.0522 22.9046 59.0524 22.1158C59.0526 21.3203 59.197 20.626 59.4855 20.0328C59.7773 19.4396 60.1818 18.979 60.6989 18.651C61.2194 18.3231 61.8243 18.1592 62.5137 18.1594C63.2031 18.1595 63.8063 18.3238 64.3232 18.652C64.8435 18.9803 65.2477 19.4411 65.5359 20.0345C65.8274 20.6278 65.9731 21.3222 65.9728 22.1177C65.9726 22.9065 65.8266 23.5959 65.5348 24.1858C65.2462 24.7756 64.8418 25.2346 64.3213 25.5625C63.8042 25.8905 63.2009 26.0544 62.5115 26.0542ZM62.5118 25.0003C63.0355 25.0004 63.4664 24.8663 63.8045 24.5979C64.1427 24.3295 64.393 23.9766 64.5555 23.5392C64.7181 23.1017 64.7994 22.6278 64.7995 22.1174C64.7997 21.607 64.7186 21.1313 64.5563 20.6905C64.394 20.2496 64.1439 19.8932 63.8059 19.6214C63.4679 19.3495 63.0371 19.2135 62.5134 19.2133C61.9897 19.2132 61.5588 19.349 61.2207 19.6206C60.8825 19.8923 60.6322 20.2486 60.4697 20.6893C60.3071 21.1301 60.2258 21.6057 60.2257 22.1161C60.2255 22.6265 60.3066 23.1005 60.4689 23.538C60.6312 23.9756 60.8813 24.3286 61.2193 24.5972C61.5573 24.8658 61.9881 25.0001 62.5118 25.0003ZM70.1463 26.0563C69.5099 26.0562 68.9482 25.8953 68.461 25.5736C67.9739 25.2487 67.5929 24.7912 67.318 24.2012C67.043 23.6078 66.9057 22.9068 66.9059 22.0981C66.9061 21.296 67.0439 20.6 67.3191 20.0101C67.5944 19.4202 67.9773 18.9646 68.4679 18.6432C68.9585 18.3219 69.5254 18.1613 70.1683 18.1615C70.6655 18.1616 71.0582 18.2446 71.3465 18.4104C71.6382 18.5729 71.8602 18.7585 72.0126 18.9674C72.1683 19.1729 72.2892 19.342 72.3754 19.4746L72.4748 19.4746L72.4758 15.7161L73.6491 15.7164L73.6463 25.8982L72.5128 25.8979L72.5131 24.7246L72.3739 24.7246C72.2877 24.8638 72.165 25.0394 72.0059 25.2515C71.8467 25.4602 71.6196 25.6474 71.3246 25.8131C71.0296 25.9754 70.6368 26.0565 70.1463 26.0563ZM70.3057 25.0024C70.7763 25.0025 71.1741 24.88 71.4989 24.6348C71.8238 24.3864 72.0708 24.0434 72.24 23.6059C72.4092 23.1652 72.4938 22.6564 72.494 22.0797C72.4941 21.5096 72.4114 21.0108 72.2458 20.5832C72.0802 20.1523 71.835 19.8175 71.5103 19.5787C71.1855 19.3367 70.7845 19.2156 70.3073 19.2155C69.8101 19.2153 69.3958 19.3428 69.0643 19.5979C68.7361 19.8498 68.489 20.1927 68.3232 20.6269C68.1607 21.0577 68.0793 21.5416 68.0792 22.0785C68.079 22.6221 68.1618 23.1159 68.3274 23.5601C68.4963 24.001 68.7448 24.3524 69.0728 24.6143C69.4042 24.8729 69.8151 25.0023 70.3057 25.0024ZM80.2715 22.7779L80.2727 18.2637L81.446 18.264L81.4439 25.9004L80.2706 25.9L80.271 24.6074L80.1914 24.6074C80.0123 24.9951 79.7338 25.3249 79.3559 25.5965C78.978 25.8649 78.5007 25.999 77.924 25.9988C77.4467 25.9987 77.0225 25.8942 76.6514 25.6853C76.2802 25.473 75.9886 25.1548 75.7766 24.7305C75.5646 24.3029 75.4587 23.7643 75.4589 23.1146L75.4602 18.2624L76.6335 18.2627L76.6322 23.0354C76.632 23.5922 76.7877 24.0364 77.0992 24.3679C77.4139 24.6994 77.8149 24.8653 78.3022 24.8654C78.5938 24.8655 78.8905 24.791 79.1921 24.6419C79.4971 24.4929 79.7524 24.2643 79.9579 23.9561C80.1668 23.6479 80.2713 23.2552 80.2715 22.7779ZM86.1951 26.0608C85.4792 26.0606 84.8628 25.8914 84.3458 25.5532C83.8289 25.215 83.4313 24.7492 83.153 24.1558C82.8748 23.5625 82.7358 22.8846 82.736 22.1223C82.7362 21.3468 82.8789 20.6624 83.1641 20.0692C83.4526 19.4727 83.8538 19.0071 84.3676 18.6725C84.8847 18.3346 85.488 18.1657 86.1774 18.1659C86.7143 18.166 87.1982 18.2656 87.629 18.4646C88.0598 18.6636 88.4127 18.9421 88.6877 19.3001C88.9627 19.6581 89.1333 20.0758 89.1995 20.5531L88.0262 20.5528C87.9368 20.2047 87.738 19.8964 87.4298 19.6279C87.125 19.356 86.714 19.22 86.197 19.2199C85.7396 19.2197 85.3385 19.3389 84.9938 19.5775C84.6523 19.8127 84.3854 20.1457 84.1931 20.5766C84.004 21.0041 83.9094 21.5062 83.9093 22.0829C83.9091 22.6728 84.0018 23.1866 84.1873 23.6241C84.3761 24.0617 84.6411 24.4015 84.9824 24.6435C85.3271 24.8856 85.7314 25.0067 86.1954 25.0068C86.5003 25.0069 86.7771 24.9539 87.0257 24.8479C87.2743 24.7419 87.4848 24.5895 87.6572 24.3907C87.8296 24.1919 87.9523 23.9533 88.0253 23.6749L89.1986 23.6752C89.1322 24.126 88.968 24.5319 88.7061 24.8931C88.4475 25.251 88.1043 25.536 87.6767 25.748C87.2524 25.9567 86.7586 26.0609 86.1951 26.0608ZM93.7363 18.2674L93.736 19.2617L89.7787 19.2606L89.7789 18.2663L93.7363 18.2674ZM90.9329 16.4371L92.1061 16.4374L92.1041 23.7158C92.104 24.0473 92.152 24.2958 92.2481 24.4616C92.3475 24.624 92.4734 24.7334 92.6259 24.7898C92.7816 24.8429 92.9457 24.8695 93.118 24.8695C93.2473 24.8695 93.3533 24.8629 93.4362 24.8497C93.5191 24.8332 93.5854 24.8199 93.6351 24.81L93.8734 25.864C93.7939 25.8938 93.6828 25.9236 93.5403 25.9534C93.3978 25.9865 93.2171 26.0031 92.9984 26.003C92.667 26.0029 92.3422 25.9316 92.024 25.7889C91.7092 25.6463 91.4474 25.4292 91.2387 25.1375C91.0333 24.8457 90.9306 24.4778 90.9308 24.0337L90.9329 16.4371Z" fill="#1D1E25"/>
</g>
<defs>
<filter id="filter0_d_1_2881" x="166.057" y="32.9336" width="116.006" height="82.0132" filterUnits="userSpaceOnUse" color-interpolation-filters="sRGB">
<feFlood flood-opacity="0" result="BackgroundImageFix"/>
<feColorMatrix in="SourceAlpha" type="matrix" values="0 0 0 0 0 0 0 0 0 0 0 0 0 0 0 0 0 0 127 0" result="hardAlpha"/>
<feOffset dy="4"/>
<feGaussianBlur stdDeviation="11"/>
<feComposite in2="hardAlpha" operator="out"/>
<feColorMatrix type="matrix" values="0 0 0 0 0.624722 0 0 0 0 0.6401 0 0 0 0 0.720833 0 0 0 0.25 0"/>
<feBlend mode="multiply" in2="BackgroundImageFix" result="effect1_dropShadow_1_2881"/>
<feBlend mode="normal" in="SourceGraphic" in2="effect1_dropShadow_1_2881" result="shape"/>
</filter>
<filter id="filter1_d_1_2881" x="168.053" y="82.9277" width="22" height="22" filterUnits="userSpaceOnUse" color-interpolation-filters="sRGB">
<feFlood flood-opacity="0" result="BackgroundImageFix"/>
<feColorMatrix in="SourceAlpha" type="matrix" values="0 0 0 0 0 0 0 0 0 0 0 0 0 0 0 0 0 0 127 0" result="hardAlpha"/>
<feOffset dy="2"/>
<feGaussianBlur stdDeviation="2"/>
<feColorMatrix type="matrix" values="0 0 0 0 0.268354 0 0 0 0 0.268354 0 0 0 0 0.31049 0 0 0 0.15 0"/>
<feBlend mode="normal" in2="BackgroundImageFix" result="effect1_dropShadow_1_2881"/>
<feBlend mode="normal" in="SourceGraphic" in2="effect1_dropShadow_1_2881" result="shape"/>
</filter>
<linearGradient id="paint0_linear_1_2881" x1="180.515" y1="54.9281" x2="180.465" y2="237.928" gradientUnits="userSpaceOnUse">
<stop stop-color="#2A85FF"/>
<stop offset="1" stop-color="#2A85FF" stop-opacity="0"/>
</linearGradient>
<clipPath id="clip0_1_2881">
<rect width="366" height="260" fill="white" transform="translate(0.578125 0.878418) rotate(0.0158183)"/>
</clipPath>
<clipPath id="clip1_1_2881">
<rect width="26.84" height="206" fill="white" transform="translate(325.695 54.9683) rotate(0.0158183)"/>
</clipPath>
<clipPath id="clip2_1_2881">
<rect width="29.28" height="206" fill="white" transform="translate(272.016 54.9536) rotate(0.0158183)"/>
</clipPath>
<clipPath id="clip3_1_2881">
<rect width="30.5" height="206" fill="white" transform="translate(217.115 54.9385) rotate(0.0158183)"/>
</clipPath>
<clipPath id="clip4_1_2881">
<rect width="48.8" height="206" fill="white" transform="translate(156.115 54.9214) rotate(0.0158183)"/>
</clipPath>
<clipPath id="clip5_1_2881">
<rect width="29.28" height="206" fill="white" transform="translate(114.635 54.9102) rotate(0.0158183)"/>
</clipPath>
<clipPath id="clip6_1_2881">
<rect width="32.94" height="206" fill="white" transform="translate(57.2949 54.894) rotate(0.0158183)"/>
</clipPath>
<clipPath id="clip7_1_2881">
<rect width="28.06" height="206" fill="white" transform="translate(4.83594 54.8799) rotate(0.0158183)"/>
</clipPath>
<clipPath id="clip8_1_2881">
<rect width="17.08" height="24" fill="white" transform="translate(10.9336 52.8813) rotate(0.0158183)"/>
</clipPath>
<clipPath id="clip9_1_2881">
<rect width="10.98" height="24" fill="white" transform="translate(18.207 222.883) rotate(0.0158183)"/>
</clipPath>
<clipPath id="clip10_1_2881">
<rect width="29.28" height="24" fill="white" transform="translate(-0.0839844 188.878) rotate(0.0158183)"/>
</clipPath>
<clipPath id="clip11_1_2881">
<rect width="29.28" height="24" fill="white" transform="translate(-0.0742188 154.878) rotate(0.0158183)"/>
</clipPath>
<clipPath id="clip12_1_2881">
<rect width="29.28" height="24" fill="white" transform="translate(-0.0644531 120.878) rotate(0.0158183)"/>
</clipPath>
<clipPath id="clip13_1_2881">
<rect width="29.28" height="24" fill="white" transform="translate(-0.0566406 86.8784) rotate(0.0158183)"/>
</clipPath>
</defs>
</svg>
