<svg width="40" height="40" viewBox="0 0 40 40" fill="none" xmlns="http://www.w3.org/2000/svg">
<path d="M16.0613 22.2727C15.4755 21.6869 14.5258 21.6869 13.94 22.2727C13.3542 22.8585 13.3542 23.8082 13.94 24.394L15.0007 23.3333L16.0613 22.2727ZM18.334 26.6667L17.2733 27.7273C17.8591 28.3131 18.8089 28.3131 19.3946 27.7273L18.334 26.6667ZM26.0613 21.0607C26.6471 20.4749 26.6471 19.5251 26.0613 18.9393C25.4755 18.3536 24.5258 18.3536 23.94 18.9393L25.0007 20L26.0613 21.0607ZM31.6673 11.6667H30.1673V31.6667H31.6673H33.1673V11.6667H31.6673ZM28.334 35V33.5H11.6673V35V36.5H28.334V35ZM8.33398 31.6667H9.83398V11.6667H8.33398H6.83398V31.6667H8.33398ZM11.6673 8.33333V9.83333H15.0007V8.33333V6.83333H11.6673V8.33333ZM25.0007 8.33333V9.83333H28.334V8.33333V6.83333H25.0007V8.33333ZM11.6673 35V33.5C10.6548 33.5 9.83398 32.6792 9.83398 31.6667H8.33398H6.83398C6.83398 34.336 8.99794 36.5 11.6673 36.5V35ZM31.6673 31.6667H30.1673C30.1673 32.6792 29.3465 33.5 28.334 33.5V35V36.5C31.0034 36.5 33.1673 34.336 33.1673 31.6667H31.6673ZM31.6673 11.6667H33.1673C33.1673 8.99729 31.0034 6.83333 28.334 6.83333V8.33333V9.83333C29.3465 9.83333 30.1673 10.6541 30.1673 11.6667H31.6673ZM8.33398 11.6667H9.83398C9.83398 10.6541 10.6548 9.83333 11.6673 9.83333V8.33333V6.83333C8.99794 6.83333 6.83398 8.99729 6.83398 11.6667H8.33398ZM15.0007 23.3333L13.94 24.394L17.2733 27.7273L18.334 26.6667L19.3946 25.606L16.0613 22.2727L15.0007 23.3333ZM18.334 26.6667L19.3946 27.7273L26.0613 21.0607L25.0007 20L23.94 18.9393L17.2733 25.606L18.334 26.6667ZM18.334 5V6.5H21.6673V5V3.5H18.334V5ZM21.6673 11.6667V10.1667H18.334V11.6667V13.1667H21.6673V11.6667ZM18.334 11.6667V10.1667C17.3215 10.1667 16.5007 9.34586 16.5007 8.33333H15.0007H13.5007C13.5007 11.0027 15.6646 13.1667 18.334 13.1667V11.6667ZM25.0007 8.33333H23.5007C23.5007 9.34586 22.6798 10.1667 21.6673 10.1667V11.6667V13.1667C24.3367 13.1667 26.5007 11.0027 26.5007 8.33333H25.0007ZM21.6673 5V6.5C22.6798 6.5 23.5007 7.32081 23.5007 8.33333H25.0007H26.5007C26.5007 5.66396 24.3367 3.5 21.6673 3.5V5ZM18.334 5V3.5C15.6646 3.5 13.5007 5.66396 13.5007 8.33333H15.0007H16.5007C16.5007 7.32081 17.3215 6.5 18.334 6.5V5Z" fill="white"/>
</svg>
